<svg width="100" height="100" viewBox="0 0 100 100" fill="none" xmlns="http://www.w3.org/2000/svg">
<g clip-path="url(#clip0_2_171)">
<path d="M-2 87.9112C-1.82 87.2312 -1.67 86.5412 -1.47 85.9112C-0.745532 83.1893 0.92865 80.8164 3.25 79.2212C10.9567 74.0545 18.6767 68.9012 26.41 63.7612C28.104 62.7932 29.3554 61.2047 29.9 59.3312C30.2231 58.109 30.2016 56.8212 29.8381 55.6105C29.4745 54.3997 28.7829 53.3132 27.84 52.4712C25.55 50.1612 23.24 47.8712 20.94 45.5712C18.94 43.5712 18.94 41.7012 20.94 39.6712L27.84 32.7712C28.05 32.5612 28.28 32.3612 28.45 32.2112L67.93 71.6912L63.53 76.0612L60.37 79.2212C58.37 81.2212 56.53 81.1612 54.54 79.2212C52.21 76.9012 49.91 74.5512 47.54 72.2212C44.67 69.4212 40.83 69.2212 37.95 71.7712C37.3147 72.3626 36.7599 73.0351 36.3 73.7712C31.25 81.3812 26.25 88.9812 21.18 96.5312C20.2126 98.0125 18.9358 99.2668 17.4374 100.208C15.939 101.148 14.2546 101.753 12.5 101.981C12.41 101.981 12.33 102.081 12.24 102.131H9.24C9.09251 102.06 8.93846 102.003 8.78 101.961C7.10759 101.71 5.50317 101.124 4.06312 100.237C2.62306 99.3501 1.37709 98.1815 0.400002 96.8012C-0.783033 95.0366 -1.58354 93.0438 -1.95 90.9512L-2 87.9112ZM10.91 94.2112C11.8989 94.2112 12.8656 93.9179 13.6879 93.3685C14.5101 92.8191 15.151 92.0382 15.5294 91.1246C15.9078 90.211 16.0069 89.2056 15.8139 88.2357C15.621 87.2658 15.1448 86.3749 14.4455 85.6757C13.7463 84.9764 12.8554 84.5002 11.8855 84.3073C10.9155 84.1143 9.91021 84.2134 8.99658 84.5918C8.08295 84.9702 7.30206 85.6111 6.75266 86.4333C6.20325 87.2556 5.91 88.2223 5.91 89.2112C5.91 90.5373 6.43678 91.809 7.37447 92.7467C8.31215 93.6844 9.58392 94.2112 10.91 94.2112Z" fill="#0F4A86"/>
<path d="M33.95 26.7313C34.07 26.6013 34.3 26.3513 34.54 26.1213L61 -0.338748C63.21 -2.54875 64.9999 -2.55875 67.1799 -0.338748L69.7 2.17125C71.36 3.84125 71.57 5.05125 70.6199 7.17125L70.02 8.55126L71.5 7.90125C72.2598 7.42604 73.1679 7.24698 74.0513 7.3982C74.9346 7.54942 75.7314 8.02035 76.2899 8.72125C79.9166 12.3346 83.5366 15.9546 87.1499 19.5813C87.859 20.1934 88.3024 21.0572 88.3864 21.9902C88.4703 22.9232 88.1883 23.8523 87.6 24.5813C85.25 28.0213 82.96 31.4713 80.75 35.0813C81.04 34.9013 81.33 34.7212 81.61 34.5312L90.94 28.1913C92.99 26.8013 94.52 26.9613 96.28 28.7113C97.84 30.2613 99.41 31.8112 100.95 33.3913C101.335 33.7179 101.645 34.1247 101.858 34.5832C102.07 35.0417 102.18 35.5409 102.18 36.0462C102.18 36.5516 102.07 37.0508 101.858 37.5093C101.645 37.9678 101.335 38.3746 100.95 38.7013C91.8166 47.8813 82.69 57.0146 73.57 66.1012C73.532 66.141 73.4881 66.1747 73.44 66.2013L33.95 26.7313Z" fill="#0F4A86"/>
</g>
<defs>
<clipPath id="clip0_2_171">
<rect width="100" height="100" fill="white"/>
</clipPath>
</defs>
</svg>
