<svg width="100" height="100" viewBox="0 0 100 100" fill="none" xmlns="http://www.w3.org/2000/svg">
<path d="M45.6 4C45.9964 4.20453 46.3198 4.52678 46.5257 4.9225C46.7316 5.31821 46.81 5.76797 46.75 6.21C46.75 10.14 46.75 14.06 46.75 17.99C46.75 19.99 46.41 20.4 44.42 20.56C40.9097 20.829 37.4987 21.8523 34.42 23.56C26.33 28.1 21.65 34.89 20.59 44.1C20.59 44.4 20.52 44.69 20.48 44.99C20.29 46.25 19.82 46.68 18.53 46.7C17.24 46.72 15.97 46.7 14.69 46.7C11.86 46.7 9.04 46.7 6.21 46.7C5.76768 46.763 5.31674 46.686 4.9204 46.4797C4.52407 46.2735 4.20222 45.9484 4 45.55V43.55C4.21 42.11 4.37 40.67 4.63 39.24C6.29188 29.7636 11.1435 21.1401 18.38 14.8C23.7512 9.94769 30.3034 6.59227 37.38 5.07C39.46 4.61 41.58 4.37 43.69 4.07C44.29 4 44.94 4 45.6 4Z" fill="#0F4A86"/>
<path d="M49.2398 14.8901C49.2398 13.5201 49.2398 12.1501 49.2398 10.7801C49.2398 10.1701 49.4098 9.96014 50.0298 9.93014C60.3743 9.31078 70.5926 12.4621 78.7914 18.8001C86.9902 25.1381 92.6137 34.2332 94.6198 44.4001C95.7895 50.3621 95.6755 56.5049 94.2854 62.4193C92.8954 68.3338 90.2612 73.8843 86.5583 78.7011C82.8554 83.5179 78.1687 87.4905 72.8104 90.3544C67.4521 93.2182 61.5451 94.9076 55.4829 95.3101C49.4206 95.7125 43.3421 94.8187 37.6523 92.6883C31.9624 90.5578 26.7918 87.2396 22.4847 82.9545C18.1775 78.6694 14.8328 73.5159 12.6731 67.837C10.5135 62.1582 9.58853 56.0844 9.95983 50.0201C9.95983 49.4101 10.1798 49.2101 10.7998 49.2101C13.3298 49.2101 15.8598 49.2101 18.3898 49.2101C21.2098 49.2101 22.7198 47.9101 22.9898 45.1001C23.2845 41.0489 24.606 37.1393 26.8298 33.7401C28.7492 30.7559 31.3221 28.2472 34.3539 26.4039C37.3858 24.5605 40.7971 23.4308 44.3298 23.1001C45.0425 23.0494 45.7489 22.9322 46.4398 22.7501C47.2188 22.5262 47.9067 22.0609 48.4045 21.4212C48.9023 20.7815 49.1842 20.0003 49.2098 19.1901C49.2798 17.7701 49.2098 16.3401 49.2098 14.9101C49.2098 14.8901 49.2298 14.8901 49.2398 14.8901ZM78.6098 52.6301C78.6098 47.4853 77.0834 42.4561 74.2238 38.1791C71.3643 33.9021 67.3001 30.5697 62.5457 28.6036C57.7913 26.6375 52.5605 26.1261 47.5154 27.1342C42.4702 28.1423 37.8376 30.6245 34.2038 34.2667C30.5701 37.9089 28.0986 42.5472 27.1021 47.5947C26.1057 52.6421 26.6291 57.8717 28.6062 62.6216C30.5833 67.3714 33.9251 71.4279 38.2087 74.2776C42.4923 77.1272 47.525 78.642 52.6698 78.6301C59.5551 78.6143 66.1529 75.868 71.0158 70.9937C75.8788 66.1195 78.6098 59.5154 78.6098 52.6301Z" fill="#0F4A86"/>
<path d="M73.6099 52.6202C73.6099 56.7762 72.3767 60.8387 70.0665 64.2934C67.7563 67.7481 64.473 70.4397 60.6323 72.0273C56.7916 73.615 52.5661 74.0274 48.4909 73.2122C44.4156 72.397 40.6739 70.391 37.7394 67.4481C34.8049 64.5052 32.8096 60.7577 32.0061 56.6802C31.2026 52.6027 31.627 48.3784 33.2257 44.5422C34.8243 40.706 37.5253 37.4304 40.9866 35.1301C44.4479 32.8299 48.5139 31.6083 52.6699 31.6202C58.2233 31.6544 63.5387 33.8798 67.46 37.8124C71.3814 41.745 73.5915 47.0667 73.6099 52.6202ZM60.0999 52.6202C60.0979 51.1408 59.6573 49.6952 58.8337 48.4662C58.0102 47.2373 56.8407 46.2801 55.4731 45.7158C54.1056 45.1515 52.6014 45.0053 51.1508 45.2959C49.7002 45.5865 48.3683 46.3006 47.3237 47.3481C46.279 48.3956 45.5683 49.7294 45.2817 51.1807C44.995 52.6321 45.1451 54.1359 45.7131 55.5019C46.2811 56.868 47.2414 58.0349 48.4725 58.8552C49.7037 59.6754 51.1505 60.1122 52.6299 60.1102C53.6135 60.1076 54.5869 59.9113 55.4947 59.5324C56.4024 59.1536 57.2266 58.5997 57.9202 57.9023C58.6139 57.2049 59.1634 56.3778 59.5374 55.468C59.9114 54.5583 60.1025 53.5838 60.0999 52.6002V52.6202ZM54.9699 38.6202C54.9586 38.0085 54.7181 37.4234 54.2958 36.9807C53.8735 36.5381 53.3003 36.2702 52.6899 36.2302C52.3698 36.2045 52.0479 36.2447 51.744 36.3483C51.4401 36.4518 51.1607 36.6166 50.9229 36.8323C50.6851 37.0481 50.4941 37.3102 50.3615 37.6027C50.229 37.8951 50.1578 38.2116 50.1523 38.5326C50.1469 38.8536 50.2072 39.1724 50.3297 39.4691C50.4522 39.7659 50.6342 40.0345 50.8644 40.2582C51.0947 40.4819 51.3684 40.6561 51.6686 40.7699C51.9688 40.8838 52.2892 40.9349 52.6099 40.9202C53.2301 40.9075 53.8215 40.6562 54.2611 40.2185C54.7007 39.7807 54.9546 39.1904 54.9699 38.5702V38.6202ZM52.6699 64.7302C52.0561 64.7344 51.467 64.9727 51.0228 65.3964C50.5787 65.8201 50.313 66.3973 50.2799 67.0102C50.2941 67.625 50.54 68.2118 50.9683 68.653C51.3966 69.0943 51.9758 69.3576 52.5899 69.3902C53.2078 69.4008 53.8047 69.1655 54.2492 68.736C54.6936 68.3066 54.9493 67.7182 54.9599 67.1002C54.9705 66.4823 54.7352 65.8854 54.3057 65.4409C53.8763 64.9965 53.2878 64.7408 52.6699 64.7302ZM38.3699 55.1002C38.9845 55.0908 39.5725 54.8479 40.0145 54.4207C40.4566 53.9935 40.7195 53.4142 40.7499 52.8002C40.7284 52.187 40.4785 51.6039 40.0493 51.1655C39.6201 50.727 39.0425 50.4648 38.4299 50.4302C37.815 50.4352 37.2262 50.6789 36.7877 51.11C36.3492 51.541 36.0954 52.1255 36.0799 52.7402C36.0745 53.3557 36.3118 53.9485 36.7404 54.3903C37.1691 54.832 37.7545 55.0871 38.3699 55.1002ZM69.1899 52.7602C69.177 52.1446 68.926 51.5579 68.4897 51.1234C68.0533 50.6889 67.4656 50.4404 66.8499 50.4302C66.2365 50.4552 65.6553 50.7113 65.223 51.1473C64.7908 51.5832 64.5396 52.1666 64.5199 52.7802C64.5329 53.3983 64.787 53.9869 65.2279 54.4203C65.6688 54.8538 66.2616 55.0977 66.8799 55.1002C67.1859 55.0976 67.4883 55.0347 67.77 54.9152C68.0517 54.7957 68.3071 54.6219 68.5216 54.4037C68.7361 54.1854 68.9055 53.9271 69.0202 53.6434C69.1349 53.3597 69.1925 53.0562 69.1899 52.7502V52.7602Z" fill="#0F4A86"/>
</svg>
