<svg width="100" height="100" viewBox="0 0 100 100" fill="none" xmlns="http://www.w3.org/2000/svg">
<path d="M99.5046 34C98.9346 35.51 98.2546 37 96.7146 37.72C95.5316 38.1866 94.3009 38.5219 93.0446 38.72C92.7883 38.7663 92.5466 38.8729 92.3397 39.0312C92.1327 39.1894 91.9664 39.3947 91.8546 39.63C91.4708 40.2029 91.296 40.8905 91.3598 41.5772C91.4235 42.2638 91.7219 42.9076 92.2046 43.4C94.3446 46.21 94.0246 48.99 91.5346 51.5C90.7446 52.3 89.9646 53.11 89.1246 53.85C88.2551 54.6236 87.164 55.1036 86.0063 55.2221C84.8485 55.3406 83.6828 55.0914 82.6746 54.51C82.3071 54.36 81.9686 54.1468 81.6746 53.88C80.3646 52.36 78.9746 52.88 77.5946 53.69C77.3544 53.8681 77.1874 54.1276 77.1246 54.42C76.9246 55.23 76.8346 56.06 76.6246 56.87C76.3507 58.0514 75.6925 59.1086 74.7533 59.8758C73.8141 60.6431 72.6469 61.0772 71.4346 61.11C70.0946 61.17 68.7346 61.17 67.4346 61.11C66.2062 61.0728 65.0248 60.6297 64.0749 59.8499C63.1251 59.0701 62.4604 57.9976 62.1846 56.8C62.0849 56.527 62.0276 56.2403 62.0146 55.95C62.0946 54.21 61.1346 53.4 59.5846 52.95C59.3536 52.8611 59.1037 52.8327 58.8586 52.8677C58.6135 52.9028 58.3815 52.9999 58.1846 53.15C57.0494 54.1554 55.6701 54.845 54.1846 55.15C53.4223 55.2728 52.6423 55.2272 51.8994 55.0165C51.1566 54.8057 50.4689 54.4349 49.8846 53.93C48.7283 52.912 47.6362 51.8232 46.6146 50.67C45.8598 49.8053 45.395 48.7257 45.2856 47.5831C45.1762 46.4404 45.4276 45.2923 46.0046 44.3C46.2005 43.8955 46.4493 43.5188 46.7446 43.18C47.2106 42.7672 47.5072 42.1965 47.5774 41.5779C47.6475 40.9594 47.4863 40.3367 47.1246 39.83C46.991 39.5362 46.7817 39.2832 46.5182 39.0969C46.2546 38.9106 45.9462 38.7978 45.6246 38.77C43.9082 38.7267 42.2675 38.0541 41.0146 36.88C40.047 35.9221 39.4818 34.6308 39.4346 33.27C39.4346 31.96 39.3746 30.64 39.4346 29.33C39.4213 28.0077 39.8771 26.7235 40.7211 25.7055C41.5652 24.6875 42.7427 24.0018 44.0446 23.77C44.483 23.6736 44.9273 23.6067 45.3746 23.57C45.7927 23.5478 46.1945 23.4006 46.5279 23.1474C46.8613 22.8942 47.111 22.5468 47.2446 22.15C47.9046 20.86 47.5246 20.01 46.7746 18.98C44.5546 15.92 44.7746 13.25 47.4946 10.57C48.2246 9.84 48.9246 9.1 49.6946 8.42C50.586 7.60017 51.7204 7.09321 52.9257 6.97592C54.1311 6.85863 55.3419 7.1374 56.3746 7.77C56.668 7.9026 56.9381 8.08155 57.1746 8.3C58.4746 9.82 59.8646 9.3 61.2446 8.49C61.493 8.31158 61.6673 8.0483 61.7346 7.75C61.9046 7.1 61.9746 6.43 62.1046 5.75C62.2782 4.66563 62.7656 3.65586 63.5067 2.84546C64.2478 2.03506 65.21 1.45954 66.2746 1.19C66.3824 1.13995 66.4833 1.07608 66.5746 1H72.1546C73.1117 1.20888 74.0031 1.64893 74.7509 2.28169C75.4987 2.91446 76.0802 3.7207 76.4446 4.63C76.7238 5.4821 76.9181 6.3597 77.0246 7.25C77.066 7.58764 77.1987 7.90759 77.4083 8.17543C77.618 8.44326 77.8968 8.64883 78.2146 8.77C78.7331 9.13753 79.3702 9.29819 80.001 9.2205C80.6318 9.14281 81.2108 8.83237 81.6246 8.35C81.9309 8.09977 82.2667 7.88818 82.6246 7.72C83.6162 7.11233 84.7752 6.83525 85.9344 6.92871C87.0936 7.02216 88.1932 7.48133 89.0746 8.24C90.2342 9.24789 91.3203 10.3373 92.3246 11.5C93.0845 12.3815 93.5428 13.4827 93.6328 14.643C93.7227 15.8033 93.4396 16.962 92.8246 17.95C92.4046 18.66 91.8846 19.33 91.4246 20.02C91.3046 20.2 91.0946 20.45 91.1446 20.6C91.3938 21.4595 91.7534 22.2831 92.2146 23.05C92.4446 23.39 93.1646 23.45 93.6846 23.52C95.3346 23.77 96.9546 24.14 98.0146 25.52C98.6047 26.4178 99.1166 27.3646 99.5446 28.35L99.5046 34ZM88.6346 15.13C88.4924 14.8794 88.3285 14.6418 88.1446 14.42C87.5046 13.75 86.8246 13.11 86.1446 12.42C86.059 12.3157 85.9531 12.2299 85.8334 12.1676C85.7137 12.1054 85.5826 12.068 85.4481 12.0577C85.3136 12.0474 85.1783 12.0645 85.0506 12.1078C84.9228 12.1512 84.8051 12.22 84.7046 12.31C83.7746 12.99 82.8146 13.63 81.8746 14.31C81.4447 14.6484 80.926 14.855 80.3811 14.9047C79.8362 14.9544 79.2886 14.8451 78.8046 14.59C77.3746 13.93 75.9046 13.34 74.3746 12.77C73.8831 12.613 73.4458 12.3205 73.1132 11.9259C72.7807 11.5314 72.5662 11.051 72.4946 10.54C72.3046 9.4 72.0846 8.27 71.9046 7.13C71.7946 6.42 71.4846 6.03 70.7046 6.07C69.9246 6.11 68.9046 6.07 68.0146 6.07C67.8801 6.05627 67.7441 6.06998 67.615 6.11031C67.4859 6.15063 67.3663 6.21673 67.2635 6.3046C67.1606 6.39248 67.0767 6.5003 67.0167 6.62154C66.9568 6.74279 66.922 6.87494 66.9146 7.01C66.7446 8.12 66.5146 9.22 66.3446 10.33C66.2884 10.884 66.0722 11.4096 65.7224 11.8429C65.3726 12.2761 64.9043 12.5982 64.3746 12.77C62.9146 13.32 61.4546 13.91 60.0346 14.56C59.5525 14.8179 59.006 14.9305 58.4611 14.8844C57.9163 14.8383 57.3965 14.6353 56.9646 14.3C56.0846 13.66 55.1646 13.07 54.2946 12.41C54.1817 12.2849 54.0419 12.1869 53.8858 12.1233C53.7297 12.0597 53.5613 12.0322 53.3931 12.0428C53.2249 12.0534 53.0612 12.1018 52.9143 12.1844C52.7674 12.267 52.641 12.3817 52.5446 12.52C51.985 13.1396 51.3942 13.7304 50.7746 14.29C50.6423 14.3726 50.5311 14.485 50.45 14.6182C50.3689 14.7515 50.3201 14.9018 50.3074 15.0573C50.2948 15.2128 50.3187 15.3691 50.3773 15.5137C50.4358 15.6582 50.5274 15.7871 50.6446 15.89C51.3146 16.79 51.9246 17.73 52.5846 18.64C52.9247 19.0689 53.133 19.5871 53.1845 20.132C53.236 20.6769 53.1283 21.225 52.8746 21.71C52.2046 23.16 51.5946 24.64 51.0246 26.13C50.8684 26.6202 50.5773 27.0565 50.1847 27.389C49.7921 27.7214 49.3138 27.9367 48.8046 28.01C47.6646 28.2 46.5346 28.42 45.3946 28.6C44.6746 28.71 44.3146 29.04 44.3946 29.81C44.4746 30.58 44.3946 31.61 44.3946 32.5C44.3809 32.6338 44.3943 32.7689 44.434 32.8974C44.4737 33.0259 44.5389 33.145 44.6257 33.2477C44.7126 33.3504 44.8192 33.4345 44.9393 33.4951C45.0594 33.5556 45.1904 33.5913 45.3246 33.6C46.4346 33.77 47.5346 34.01 48.6346 34.17C49.209 34.2379 49.7515 34.4703 50.1968 34.8393C50.6421 35.2084 50.9713 35.6982 51.1446 36.25C51.6646 37.66 52.2246 39.06 52.8646 40.41C53.1444 40.9175 53.2663 41.4971 53.2146 42.0743C53.163 42.6516 52.9401 43.2002 52.5746 43.65C51.9246 44.53 51.3346 45.44 50.6846 46.32C50.5659 46.4207 50.4723 46.5477 50.4113 46.691C50.3503 46.8342 50.3236 46.9897 50.3333 47.1451C50.343 47.3005 50.3889 47.4514 50.4672 47.586C50.5456 47.7205 50.6543 47.8349 50.7846 47.92C51.4246 48.51 52.0346 49.12 52.6246 49.76C52.7083 49.8898 52.821 49.9985 52.9538 50.0775C53.0865 50.1565 53.2358 50.2036 53.3898 50.2152C53.5438 50.2269 53.6985 50.2026 53.8416 50.1445C53.9847 50.0863 54.1124 49.9958 54.2146 49.88C55.0946 49.23 56.0046 48.64 56.8846 47.99C57.3338 47.6233 57.8826 47.3996 58.4601 47.3479C59.0377 47.2962 59.6175 47.4189 60.1246 47.7C61.4813 48.3433 62.8698 48.9174 64.2846 49.42C64.8535 49.5939 65.3578 49.933 65.7335 50.3941C66.1092 50.8553 66.3393 51.4177 66.3946 52.01C66.5446 53.09 66.7846 54.15 66.9546 55.23C66.9621 55.3641 66.9966 55.4954 67.0559 55.6159C67.1152 55.7364 67.1983 55.8438 67.3 55.9315C67.4017 56.0192 67.5201 56.0856 67.648 56.1265C67.776 56.1675 67.9109 56.1823 68.0446 56.17C68.9446 56.17 69.8446 56.17 70.7346 56.17C71.6246 56.17 71.8346 55.85 71.9446 55.17C72.1146 54.06 72.3546 52.96 72.5146 51.86C72.5787 51.3123 72.8025 50.7956 73.1581 50.3741C73.5137 49.9527 73.9855 49.6452 74.5146 49.49C75.9746 48.93 77.4246 48.34 78.8546 47.69C79.3386 47.4349 79.8862 47.3256 80.4311 47.3753C80.976 47.425 81.4947 47.6316 81.9246 47.97C82.8346 48.63 83.7746 49.24 84.6746 49.91C84.7871 50.0259 84.9244 50.1148 85.0761 50.1701C85.2278 50.2254 85.3901 50.2456 85.5508 50.2292C85.7114 50.2129 85.8663 50.1604 86.0038 50.0756C86.1413 49.9909 86.2578 49.8762 86.3446 49.74C86.8809 49.1437 87.4484 48.5763 88.0446 48.04C88.1852 47.9456 88.3022 47.8204 88.3869 47.6738C88.4716 47.5273 88.5217 47.3633 88.5333 47.1944C88.5449 47.0255 88.5177 46.8562 88.4538 46.6995C88.3899 46.5427 88.291 46.4027 88.1646 46.29C87.5446 45.48 87.0046 44.59 86.3846 43.78C85.9913 43.3111 85.7508 42.7331 85.6954 42.1236C85.6399 41.514 85.7723 40.9021 86.0746 40.37C86.7121 39.0453 87.2763 37.6866 87.7646 36.3C87.9306 35.7285 88.2661 35.2208 88.7267 34.8441C89.1874 34.4673 89.7516 34.2393 90.3446 34.19C91.3946 34.04 92.4246 33.79 93.4646 33.65C94.2046 33.55 94.5446 33.22 94.5146 32.46C94.4846 31.7 94.5146 30.73 94.5146 29.86C94.5481 29.7116 94.5474 29.5576 94.5124 29.4095C94.4773 29.2615 94.409 29.1234 94.3126 29.0058C94.2162 28.8881 94.0942 28.794 93.9559 28.7306C93.8176 28.6673 93.6667 28.6363 93.5146 28.64C92.3746 28.46 91.2446 28.24 90.1046 28.05C89.593 27.9853 89.1104 27.7758 88.7136 27.4464C88.3168 27.1169 88.0223 26.681 87.8646 26.19C87.2946 24.7 86.6946 23.19 86.0346 21.76C85.7768 21.2779 85.6641 20.7313 85.7102 20.1865C85.7564 19.6417 85.9594 19.1219 86.2946 18.69C86.9446 17.78 87.5846 16.86 88.2246 15.93C88.3922 15.6803 88.5298 15.4118 88.6346 15.13Z" fill="#0F4A86"/>
<path d="M18.3746 32.2301C19.854 32.2229 21.282 32.7726 22.3746 33.7701C23.9846 35.1901 25.4646 35.6501 27.5346 34.4901C28.6746 33.8601 29.3646 33.3501 29.4446 32.0501C29.5047 31.316 29.6353 30.5893 29.8346 29.8801C30.0025 29.2896 30.3787 28.7799 30.8934 28.4453C31.4082 28.1107 32.0267 27.9739 32.6346 28.0601C33.2337 28.1784 33.7684 28.5126 34.1372 28.9994C34.5059 29.4861 34.6829 30.0914 34.6346 30.7001C34.3846 32.6001 34.0146 34.4901 33.6346 36.3801C33.5358 36.8053 33.3251 37.1963 33.0245 37.5128C32.7238 37.8292 32.3441 38.0596 31.9246 38.1801C29.9246 38.9801 27.9246 39.7901 25.9946 40.6401C25.5368 40.8742 25.0228 40.9757 24.5104 40.9333C23.998 40.8909 23.5077 40.7063 23.0946 40.4001C21.8146 39.4934 20.5279 38.5934 19.2346 37.7001C19.0617 37.5278 18.8531 37.3956 18.6235 37.3126C18.394 37.2296 18.149 37.198 17.9059 37.2199C17.6628 37.2419 17.4275 37.3168 17.2165 37.4395C17.0054 37.5622 16.8239 37.7297 16.6846 37.9301C15.7946 38.8101 14.9046 39.6901 14.0346 40.5901C13.8504 40.7247 13.6971 40.8972 13.585 41.096C13.4729 41.2947 13.4046 41.5151 13.3848 41.7424C13.3649 41.9697 13.3938 42.1987 13.4697 42.4139C13.5455 42.6291 13.6666 42.8255 13.8246 42.9901C14.6746 44.2301 15.5346 45.4801 16.4346 46.6801C16.8216 47.1725 17.0499 47.7708 17.0892 48.3959C17.1285 49.0209 16.9769 49.6432 16.6546 50.1801C15.843 51.8483 15.135 53.5649 14.5346 55.3201C14.3739 55.9428 14.0259 56.5011 13.5377 56.9196C13.0494 57.338 12.4445 57.5965 11.8046 57.6601C10.3446 57.8801 8.8946 58.1501 7.4546 58.4201C6.3046 58.6401 5.91459 59.1101 5.90459 60.2501C5.89459 61.3901 5.90459 62.8201 5.90459 64.1001C5.90459 65.3801 6.36459 65.7501 7.54459 65.9701C9.02459 66.2301 10.5446 66.5001 11.9946 66.7501C12.5685 66.819 13.1093 67.056 13.5488 67.4315C13.9883 67.8069 14.3069 68.304 14.4646 68.8601C15.1446 70.7201 15.9146 72.5501 16.7446 74.3501C17.0199 74.8562 17.1437 75.4309 17.1012 76.0054C17.0586 76.58 16.8515 77.1301 16.5046 77.5901C15.6046 78.8401 14.7146 80.1001 13.8546 81.3701C13.6939 81.5326 13.5702 81.7277 13.4918 81.9423C13.4133 82.1569 13.3821 82.3859 13.4001 82.6136C13.4181 82.8414 13.485 83.0626 13.5963 83.2621C13.7075 83.4617 13.8604 83.635 14.0446 83.7701C14.9513 84.7234 15.8813 85.6534 16.8346 86.5601C16.9676 86.7354 17.1364 86.8804 17.3298 86.9854C17.5232 87.0905 17.7367 87.1531 17.9562 87.1692C18.1757 87.1853 18.3961 87.1544 18.6027 87.0787C18.8093 87.003 18.9975 86.8842 19.1546 86.7301C20.4546 85.8401 21.7346 84.9401 23.0146 84.0201C23.4622 83.6794 23.9993 83.4763 24.5604 83.4354C25.1215 83.3946 25.6823 83.5178 26.1746 83.7901C28.0046 84.6201 29.8646 85.4101 31.7546 86.1001C32.2942 86.2596 32.776 86.5722 33.1416 86.9999C33.5072 87.4277 33.741 87.9523 33.8146 88.5101C34.0646 89.9901 34.3246 91.5101 34.5946 92.9601C34.8246 94.2401 35.2946 94.6401 36.5946 94.6501C37.8946 94.6601 38.9646 94.6501 40.1546 94.6501C41.3446 94.6501 41.8946 94.2901 42.1546 93.0501C42.4146 91.8101 42.7046 90.3501 42.8746 88.9801C42.9275 88.2653 43.2103 87.5869 43.6808 87.0461C44.1512 86.5054 44.784 86.1314 45.4846 85.9801C47.1564 85.447 48.7818 84.7781 50.3446 83.9801C50.8915 83.6426 51.5299 83.4835 52.1712 83.5247C52.8126 83.5659 53.4253 83.8054 53.9246 84.2101C55.1046 85.1001 56.3246 85.9201 57.5446 86.7601C57.7106 86.9289 57.9117 87.059 58.1337 87.1412C58.3557 87.2233 58.5931 87.2555 58.8289 87.2355C59.0648 87.2154 59.2933 87.1436 59.4983 87.0252C59.7032 86.9067 59.8795 86.7445 60.0146 86.5501C60.9046 85.6801 61.7946 84.7901 62.6646 83.9001C62.8547 83.7623 63.0132 83.5855 63.1295 83.3815C63.2458 83.1775 63.3173 82.951 63.339 82.7172C63.3608 82.4834 63.3324 82.2476 63.2558 82.0257C63.1791 81.8037 63.056 81.6007 62.8946 81.4301C62.0213 80.1635 61.1379 78.9035 60.2446 77.6501C59.8993 77.1891 59.694 76.6385 59.6532 76.0639C59.6124 75.4894 59.7379 74.9153 60.0146 74.4101C60.8479 72.6101 61.6079 70.7801 62.2946 68.9201C62.4506 68.3802 62.759 67.8967 63.183 67.5278C63.6069 67.1588 64.1283 66.92 64.6846 66.8401C66.1346 66.5901 67.5846 66.3101 69.0446 66.0901C69.58 65.9901 70.1292 65.9901 70.6646 66.0901C71.2003 66.2175 71.6765 66.5237 72.0147 66.9582C72.3528 67.3927 72.5327 67.9296 72.5246 68.4801C72.5099 69.028 72.3176 69.5563 71.9768 69.9855C71.6359 70.4147 71.1649 70.7217 70.6346 70.8601C69.6346 71.1001 68.5646 71.2801 67.5146 71.4301C67.2778 71.4263 67.0473 71.5065 66.8642 71.6567C66.6811 71.8069 66.5572 72.0172 66.5146 72.2501C66.4086 72.7875 66.2089 73.302 65.9246 73.7701C64.8646 75.2201 65.2646 76.3901 66.3346 77.6501C67.0378 78.4825 67.5926 79.4296 67.9746 80.4501C68.387 81.4685 68.5118 82.5806 68.3355 83.6651C68.1591 84.7496 67.6884 85.7648 66.9746 86.6001C65.7611 88.0217 64.4514 89.3582 63.0546 90.6001C62.0153 91.5756 60.6756 92.1692 59.2548 92.2837C57.8341 92.3981 56.4166 92.0267 55.2346 91.2301C54.3877 90.7083 53.5698 90.1408 52.7846 89.5301C52.5546 89.2923 52.2482 89.1429 51.9191 89.1082C51.59 89.0734 51.2592 89.1555 50.9846 89.3401C50.2634 89.7696 49.4906 90.1056 48.6846 90.3401C48.3601 90.4077 48.0695 90.5867 47.8632 90.8461C47.6568 91.1054 47.5476 91.4288 47.5546 91.7601C47.4271 92.7703 47.2401 93.772 46.9946 94.7601C46.6713 96.1773 45.8774 97.4431 44.7424 98.3511C43.6074 99.2592 42.1982 99.7558 40.7446 99.7601C39.3646 99.7601 37.9846 99.7601 36.6046 99.7601C34.9324 99.8484 33.2889 99.2988 32.0063 98.2222C30.7237 97.1456 29.8975 95.6223 29.6946 93.9601C29.5243 93.2114 29.3974 92.4535 29.3146 91.6901C29.3269 91.357 29.2182 91.0308 29.0087 90.7716C28.7991 90.5124 28.5029 90.3378 28.1746 90.2801C27.2646 90.0001 26.4146 89.5101 25.5046 89.2001C25.1723 89.0983 24.8134 89.1306 24.5046 89.2901C23.4446 89.9501 22.5046 90.7401 21.3946 91.3801C20.2472 92.0774 18.9065 92.3885 17.5693 92.2679C16.2321 92.1473 14.9687 91.6014 13.9646 90.7101C12.62 89.5172 11.3446 88.2484 10.1446 86.9101C9.19525 85.8912 8.61212 84.5853 8.48718 83.1983C8.36224 81.8113 8.70261 80.4222 9.4546 79.2501C10.0646 78.2501 10.8246 77.3101 11.4546 76.3001C11.6351 75.9624 11.6746 75.5669 11.5646 75.2001C11.2286 74.1987 10.8208 73.2229 10.3446 72.2801C10.1426 71.9176 9.81003 71.6458 9.4146 71.5201C8.4146 71.2501 7.2646 71.1401 6.2046 70.9001C4.72614 70.6062 3.39702 69.8045 2.44736 68.6339C1.49771 67.4633 0.987328 65.9974 1.00459 64.4901C1.00459 63.1101 1.00459 61.7301 1.00459 60.3501C0.943892 58.7268 1.48673 57.1386 2.5283 55.892C3.56988 54.6454 5.03634 53.8289 6.64459 53.6001C7.74459 53.3901 9.0946 53.5101 9.8846 52.9101C10.6746 52.3101 10.7946 50.9101 11.3546 49.9901C11.5865 49.6532 11.6907 49.2446 11.6486 48.8377C11.6064 48.4309 11.4206 48.0524 11.1246 47.7701C10.4667 46.9424 9.8717 46.0666 9.3446 45.1501C8.68887 44.035 8.39716 42.7431 8.51008 41.4544C8.623 40.1657 9.13492 38.9442 9.97459 37.9601C11.2446 36.4947 12.5897 35.0962 14.0046 33.7701C14.5828 33.2191 15.2712 32.797 16.0245 32.5316C16.7777 32.2661 17.5787 32.1634 18.3746 32.2301Z" fill="#0F4A86"/>
<path d="M38.8344 78.8901C28.4444 78.8301 20.8344 70.3601 21.7444 60.5101C22.1697 56.4195 24.0796 52.6268 27.1129 49.8496C30.1462 47.0725 34.0924 45.5037 38.2044 45.4401C38.8678 45.409 39.5176 45.6348 40.0187 46.0707C40.5197 46.5065 40.8334 47.1188 40.8944 47.7801C40.9147 48.1089 40.8687 48.4384 40.7592 48.7491C40.6496 49.0598 40.4788 49.3454 40.2568 49.5888C40.0348 49.8322 39.7662 50.0286 39.4669 50.1662C39.1676 50.3039 38.8437 50.38 38.5144 50.3901C35.6682 50.4355 32.9244 51.4596 30.7444 53.2901C29.2861 54.5486 28.1607 56.1475 27.4681 57.945C26.7755 59.7425 26.537 61.6831 26.7738 63.5948C27.0105 65.5066 27.7153 67.3303 28.8255 68.9045C29.9358 70.4787 31.4172 71.7547 33.1386 72.6194C34.86 73.4841 36.768 73.9108 38.6937 73.8616C40.6194 73.8125 42.5033 73.289 44.1783 72.3376C45.8533 71.3862 47.2677 70.0363 48.2962 68.4076C49.3247 66.7788 49.9355 64.9214 50.0744 63.0001C50.0023 62.0634 50.2882 61.1342 50.8744 60.4001C51.2149 60.0543 51.6494 59.8159 52.124 59.7146C52.5985 59.6133 53.0924 59.6534 53.5444 59.8301C54.0247 60.0242 54.4347 60.3595 54.7203 60.7916C55.006 61.2236 55.1539 61.7322 55.1444 62.2501C55.1098 65.5719 54.0935 68.8093 52.2234 71.5549C50.3533 74.3004 47.7129 76.4316 44.6344 77.6801C42.794 78.4433 40.8265 78.8537 38.8344 78.8901Z" fill="#0F4A86"/>
<path d="M69.4444 43.0701C67.0818 43.0602 64.7751 42.3502 62.8159 41.0298C60.8567 39.7093 59.3328 37.8378 58.4369 35.6516C57.541 33.4655 57.3133 31.0628 57.7824 28.7472C58.2516 26.4316 59.3966 24.3071 61.0728 22.642C62.749 20.977 64.8812 19.8462 67.1999 19.3925C69.5185 18.9389 71.9196 19.1827 74.0998 20.0932C76.2799 21.0037 78.1412 22.5401 79.4485 24.5081C80.7557 26.4761 81.4503 28.7874 81.4444 31.1501C81.4458 32.7225 81.1357 34.2797 80.5322 35.7318C79.9286 37.1838 79.0435 38.502 77.9278 39.6102C76.8122 40.7184 75.4882 41.5947 74.0321 42.1885C72.5761 42.7823 71.0169 43.082 69.4444 43.0701ZM69.2944 38.0701C70.6704 38.0998 72.0242 37.7196 73.1837 36.978C74.3431 36.2364 75.2559 35.1667 75.8059 33.905C76.3559 32.6434 76.5184 31.2466 76.2726 29.8924C76.0268 28.5382 75.3839 27.2876 74.4256 26.2997C73.4673 25.3117 72.2369 24.631 70.8908 24.3441C69.5447 24.0572 68.1436 24.1771 66.8658 24.6884C65.5879 25.1998 64.491 26.0795 63.7144 27.2158C62.9378 28.3522 62.5166 29.6938 62.5044 31.0701C62.5062 32.889 63.2159 34.6359 64.4833 35.9406C65.7507 37.2453 67.4763 38.0055 69.2944 38.0601V38.0701Z" fill="#0F4A86"/>
</svg>
