<svg width="100" height="100" viewBox="0 0 100 100" fill="none" xmlns="http://www.w3.org/2000/svg">
<path d="M5.25 77.5338C5.58961 76.0356 6.00551 74.5556 6.4961 73.0998C7.85971 69.7521 10.3409 66.9802 13.5177 65.2555C16.6944 63.5309 20.3705 62.9599 23.9207 63.6398C24.2935 63.7337 24.6851 63.7222 25.0518 63.6067C25.4184 63.4912 25.7459 63.2762 25.9976 62.9856C38.4586 50.5246 50.9196 38.0636 63.3806 25.6026C63.6143 25.4002 63.7861 25.1359 63.8761 24.8401C63.9661 24.5443 63.9707 24.2291 63.8894 23.9308C63.1111 20.2123 63.711 16.3378 65.5775 13.0289C67.444 9.72003 70.4497 7.20251 74.0347 5.94539C76.4333 5.04838 79.0224 4.78375 81.5529 5.17696C82.0313 5.2382 82.4819 5.43642 82.8504 5.74777C83.2189 6.05912 83.4895 6.47032 83.6297 6.93189C83.7999 7.40615 83.8267 7.92006 83.7067 8.40945C83.5866 8.89884 83.3251 9.34202 82.9547 9.68368C81.7813 10.8675 80.5768 12.0305 79.4241 13.2351C78.3652 14.1315 77.7057 15.4119 77.5908 16.7946C77.5339 17.4792 77.6124 18.1683 77.8219 18.8226C78.0313 19.4769 78.3676 20.0835 78.8114 20.6078C79.2553 21.1322 79.7981 21.5639 80.4089 21.8785C81.0196 22.193 81.6863 22.3842 82.3709 22.4411C83.7536 22.556 85.1253 22.1169 86.1842 21.2205C87.5314 20.0483 88.8173 18.8075 90.0367 17.503C90.389 17.0338 90.8758 16.6832 91.4323 16.4977C91.9889 16.3121 92.5887 16.3006 93.152 16.4645C93.7289 16.6548 94.2288 17.0266 94.577 17.5245C94.9251 18.0224 95.1028 18.6195 95.0834 19.2267C95.4811 23.1377 94.4049 27.0563 92.0656 30.2157C89.7264 33.3751 86.2923 35.5478 82.4355 36.3087C80.2781 36.7242 78.0613 36.7242 75.9039 36.3087C75.7186 36.2854 75.5306 36.3011 75.3517 36.3547C75.1729 36.4084 75.0073 36.4988 74.8655 36.6202C62.1691 49.2889 49.4831 61.9749 36.8075 74.6782C36.685 74.8374 36.5961 75.0198 36.5461 75.2143C36.4961 75.4089 36.4861 75.6115 36.5167 75.8101C37.7109 82.7986 35.4783 88.3541 29.6632 92.4247C27.8016 93.6969 25.6676 94.5149 23.4327 94.8131C23.1835 94.8131 22.9342 94.9377 22.685 95H19.6632C19.5938 94.9498 19.5166 94.9112 19.4348 94.8858C18.8328 94.9161 18.2382 94.7416 17.748 94.3909C17.2577 94.0402 16.9007 93.5339 16.7349 92.9543C16.5846 92.3836 16.6102 91.7807 16.8085 91.2248C17.0068 90.6689 17.3684 90.1859 17.846 89.8391C19.1347 88.6491 20.3551 87.3871 21.5012 86.0592C21.9706 85.4532 22.2999 84.7507 22.4656 84.0022C22.6312 83.2538 22.6291 82.4779 22.4593 81.7304C22.2896 80.9829 21.9564 80.2822 21.4837 79.6787C21.0111 79.0752 20.4106 78.5839 19.7255 78.24C18.7025 77.7445 17.549 77.5851 16.43 77.7847C15.311 77.9842 14.2837 78.5325 13.495 79.3511C12.3424 80.4725 11.2209 81.6252 10.0786 82.7571C9.72796 83.1567 9.26347 83.4395 8.74748 83.5675C8.23149 83.6956 7.68867 83.6628 7.19184 83.4736C6.70213 83.3071 6.27479 82.9952 5.96682 82.5797C5.65885 82.1641 5.48487 81.6645 5.46807 81.1475C5.43556 80.9501 5.38694 80.7556 5.32269 80.566C5.25 79.5276 5.25 78.5307 5.25 77.5338Z" fill="#0F4A86"/>
<path d="M77.7834 94.9274C76.0185 94.5082 74.2839 93.9705 72.5913 93.3179C69.396 91.8307 66.8047 89.2964 65.2466 86.135C63.6886 82.9736 63.2573 79.3748 64.0244 75.9348C64.1067 75.6785 64.1112 75.4036 64.0373 75.1449C63.9634 74.8861 63.8143 74.6551 63.609 74.481C60.6288 71.5423 57.6797 68.5724 54.7306 65.6129C54.5021 65.3845 54.2944 65.156 54.1387 64.9899L65.2705 53.8477C65.3847 53.9619 65.6236 54.1592 65.8416 54.3773C68.8219 57.3575 71.8125 60.3274 74.772 63.318C74.9452 63.5244 75.1762 63.6743 75.4353 63.7483C75.6944 63.8224 75.9697 63.8171 76.2258 63.7334C78.289 63.3103 80.4162 63.3052 82.4814 63.7185C84.5466 64.1317 86.508 64.955 88.2496 66.1395C89.9911 67.324 91.4775 68.8457 92.6207 70.6146C93.7639 72.3835 94.5408 74.3637 94.9054 76.4381C95.27 78.5125 95.2149 80.6389 94.7434 82.6916C94.2718 84.7443 93.3935 86.6817 92.1602 88.389C90.9269 90.0964 89.3638 91.5391 87.5633 92.6318C85.7627 93.7245 83.7613 94.4451 81.6775 94.7509C81.452 94.7938 81.2299 94.8528 81.0129 94.9274H77.7834ZM81.3244 70.8465L81.231 71.0127C81.0271 70.9968 80.8222 70.9968 80.6183 71.0127C78.5415 71.5527 76.5581 72.0511 74.5332 72.6638C74.0942 72.7939 73.6985 73.0401 73.3878 73.3764C73.0771 73.7127 72.863 74.1266 72.7679 74.5745C72.2487 76.4644 71.7294 78.3543 71.2622 80.2442C71.1216 80.71 71.1141 81.2059 71.2408 81.6757C71.3674 82.1455 71.623 82.5705 71.9787 82.9026C73.3494 84.3044 74.7409 85.6751 76.1323 87.0562C76.467 87.4116 76.8933 87.6675 77.3643 87.7958C77.8352 87.9241 78.3324 87.9197 78.8011 87.7831C80.7221 87.2951 82.6432 86.7447 84.5539 86.2359C85.0004 86.1323 85.4099 85.908 85.7377 85.5875C86.0655 85.2671 86.299 84.8627 86.4127 84.4186C86.963 82.456 87.4511 80.4727 88.0014 78.4997C88.129 78.0451 88.1287 77.5641 88.0004 77.1097C87.8722 76.6553 87.621 76.2452 87.2745 75.9244C85.9038 74.5329 84.5331 73.1207 83.1209 71.7707C82.5555 71.4016 81.9535 71.0919 81.3244 70.8465Z" fill="#0F4A86"/>
<path d="M5.25 19.0503C5.6692 17.2853 6.20693 15.5507 6.85954 13.8582C8.24923 10.9092 10.5401 8.47815 13.4014 6.91592C16.2627 5.35369 19.5464 4.74111 22.7785 5.16662C25.1542 5.35254 27.4512 6.10358 29.4778 7.35715C31.5045 8.61073 33.2022 10.3305 34.4295 12.3732C35.5276 14.0762 36.2766 15.9802 36.6331 17.9749C36.9896 19.9696 36.9465 22.0152 36.5063 23.9931C36.4337 24.2521 36.4382 24.5266 36.5194 24.783C36.6005 25.0394 36.7548 25.2665 36.9632 25.4365C39.9435 28.4168 42.8926 31.4282 45.8417 34.4396L46.3609 35.0003L35.2291 46.1322C35.1252 46.0283 34.8968 45.831 34.6787 45.613C31.7608 42.6535 28.8324 39.7044 25.9353 36.7241C25.7327 36.471 25.4609 36.2823 25.153 36.1809C24.8451 36.0795 24.5144 36.0698 24.2011 36.153C20.9115 36.8568 17.4823 36.4716 14.4309 35.0555C11.3795 33.6394 8.87144 31.2691 7.2853 28.3025C6.5286 26.6306 5.92724 24.8926 5.48883 23.1105C5.40719 22.834 5.34133 22.5532 5.29154 22.2693L5.25 19.0503ZM29.5178 19.2268L29.7047 19.1022C29.3988 18.4126 29.0193 17.758 28.5728 17.1499C27.3267 15.7896 25.9768 14.5331 24.6892 13.2247C24.3245 12.8213 23.8526 12.53 23.3286 12.3847C22.8045 12.2394 22.25 12.2463 21.7297 12.4044L16.3195 13.8582C15.7785 13.9812 15.2854 14.2603 14.9015 14.6608C14.5176 15.0614 14.2596 15.5658 14.1596 16.1115C13.7027 17.8976 13.2043 19.6629 12.7266 21.4386C12.5628 21.9435 12.5451 22.4843 12.6755 22.9988C12.806 23.5133 13.0793 23.9804 13.4639 24.3462C14.8034 25.6857 16.143 27.0461 17.4929 28.3752C17.839 28.7564 18.2865 29.0311 18.783 29.1672C19.2796 29.3033 19.8046 29.2951 20.2967 29.1437C22.1554 28.6348 24.0246 28.1052 25.8833 27.6483C26.3914 27.536 26.8568 27.2808 27.2247 26.9129C27.5926 26.5449 27.8478 26.0796 27.9602 25.5715L29.4243 20.0679C29.4451 19.7668 29.4763 19.4968 29.5178 19.2268Z" fill="#0F4A86"/>
</svg>
