<svg width="211" height="72" viewBox="0 0 211 72" fill="none" xmlns="http://www.w3.org/2000/svg">
<path d="M18.3399 39.285V14.4166H35.3056C37.237 14.4166 38.9183 14.6795 40.3496 15.2053C41.7785 15.7311 42.893 16.5505 43.6932 17.6661C44.491 18.7816 44.8911 20.2097 44.8911 21.9529C44.8911 23.1324 44.6839 24.1318 44.2719 24.9513C43.8599 25.7708 43.286 26.4387 42.5525 26.9503C41.819 27.4642 40.9735 27.8526 40.0209 28.1226C39.0683 28.3926 38.0491 28.5655 36.9679 28.6413L36.4273 28.3334C38.2301 28.3595 39.7113 28.5063 40.8711 28.7763C42.0309 29.0463 42.9002 29.5318 43.4789 30.2376C44.0576 30.9434 44.3481 31.9855 44.3481 33.3711V39.2897H39.2089V33.7168C39.2089 32.7695 39.0421 32.0329 38.7064 31.5071C38.3706 30.9813 37.7728 30.6166 36.9083 30.4105C36.0438 30.2068 34.8031 30.1026 33.1789 30.1026H23.4791V39.2897H18.3399V39.285ZM23.4791 26.1024H35.3056C36.7488 26.1024 37.849 25.7566 38.6111 25.065C39.3708 24.3734 39.7518 23.4379 39.7518 22.2584C39.7518 21.1311 39.3708 20.2737 38.6111 19.6839C37.8514 19.0942 36.7488 18.8005 35.3056 18.8005H23.4791V26.1024Z" fill="white"/>
<path d="M50.2613 14.4166H55.4006V39.285H50.2613V14.4166ZM60.9685 27.1776L60.9304 25.0247L77.7818 39.285H70.3611L55.3649 26.2161L68.6988 14.4166H76.0029L60.9685 27.1776Z" fill="white"/>
<path d="M87.2864 14.4166H113.645V18.6821H87.2864V14.4166ZM97.915 18.1445H103.054V39.285H97.915V18.1445Z" fill="white"/>
<path d="M126.783 39.285L115.731 14.4166H121.413L130.882 36.8645H129.105L138.536 14.4166H144.14L133.201 39.285H126.783Z" fill="white"/>
<path d="M146.223 30.9055H151.441C151.544 31.7771 151.951 32.5658 152.658 33.2692C153.366 33.975 154.301 34.5245 155.461 34.9224C156.621 35.3203 157.921 35.5192 159.365 35.5192C160.679 35.5192 161.76 35.3795 162.61 35.0976C163.461 34.8158 164.092 34.4179 164.504 33.9063C164.916 33.3947 165.123 32.7789 165.123 32.0613C165.123 31.3697 164.866 30.8368 164.351 30.465C163.835 30.0932 163.025 29.7853 161.917 29.5437C160.81 29.2997 159.353 29.0511 157.55 28.7953C156.133 28.5892 154.792 28.3026 153.53 27.9308C152.268 27.5589 151.153 27.0782 150.186 26.4884C149.219 25.8987 148.46 25.1763 147.905 24.3166C147.35 23.4592 147.074 22.4408 147.074 21.2613C147.074 19.8 147.493 18.5187 148.329 17.4174C149.165 16.3161 150.41 15.4563 152.058 14.8429C153.706 14.2271 155.73 13.9216 158.126 13.9216C161.734 13.9216 164.509 14.6842 166.454 16.2095C168.4 17.7347 169.345 19.8284 169.295 22.4929H164.27C164.168 20.9818 163.53 19.8924 162.358 19.2268C161.186 18.5613 159.71 18.2274 157.933 18.2274C156.285 18.2274 154.925 18.4713 153.856 18.9568C152.787 19.4447 152.253 20.2761 152.253 21.4555C152.253 21.9174 152.382 22.32 152.639 22.6658C152.896 23.0116 153.335 23.3124 153.954 23.5682C154.573 23.824 155.409 24.0679 156.466 24.2976C157.524 24.5274 158.836 24.7595 160.408 24.9892C161.877 25.1953 163.211 25.47 164.409 25.8158C165.606 26.1616 166.638 26.6092 167.5 27.1611C168.362 27.7129 169.026 28.4092 169.491 29.2547C169.955 30.1003 170.186 31.1376 170.186 32.3692C170.186 33.8826 169.793 35.1947 169.007 36.3079C168.221 37.4234 167.009 38.2879 165.375 38.9013C163.739 39.5171 161.62 39.8226 159.017 39.8226C157.162 39.8226 155.526 39.6237 154.109 39.2258C152.692 38.8279 151.468 38.2974 150.436 37.6295C149.405 36.964 148.567 36.2345 147.924 35.4387C147.278 34.6453 146.824 33.8495 146.552 33.0561C146.281 32.265 146.171 31.5474 146.223 30.9055Z" fill="white"/>
<path d="M15.5321 57.9434L18.5518 51.5534H19.9831L23.0314 57.9434H21.5906L18.9495 52.1858H19.5854L16.9633 57.9434H15.5321ZM17.1324 56.5508V55.4542H21.3834V56.5508H17.1324Z" fill="white"/>
<path d="M29.7043 55.1203V51.5534H31.026V55.2576C31.026 55.6792 30.9641 56.0487 30.8427 56.3637C30.7188 56.6787 30.545 56.9463 30.3211 57.1642C30.0949 57.3821 29.8329 57.5574 29.5305 57.6924C29.228 57.8274 28.9018 57.9245 28.5469 57.9837C28.1921 58.0429 27.8206 58.0737 27.43 58.0737C27.0251 58.0737 26.6417 58.0453 26.2774 57.9837C25.913 57.9245 25.5796 57.8274 25.2795 57.6924C24.9771 57.5574 24.7175 57.3821 24.5008 57.1642C24.2817 56.9463 24.1126 56.6811 23.9887 56.3637C23.8673 56.0487 23.8054 55.6792 23.8054 55.2576V51.5534H25.1271V55.1203C25.1271 55.62 25.2271 56.0013 25.4248 56.2618C25.6224 56.5224 25.8963 56.7 26.244 56.7947C26.5917 56.8895 26.987 56.9369 27.43 56.9369C27.861 56.9369 28.2468 56.8895 28.5874 56.7947C28.928 56.7 29.1994 56.5224 29.4019 56.2618C29.6043 56.0013 29.7043 55.62 29.7043 55.1203Z" fill="white"/>
<path d="M31.9905 51.5534H38.7635V52.65H31.9905V51.5534ZM34.7221 52.5126H36.0438V57.9458H34.7221V52.5126Z" fill="white"/>
<path d="M39.7256 51.5534H41.0474V57.9434H39.7256V51.5534ZM40.8878 54.1895H45.9818V55.2861H40.8878V54.1895ZM45.7651 51.5534H47.0868V57.9434H45.7651V51.5534Z" fill="white"/>
<path d="M52.438 58.0737C51.5831 58.0737 50.8543 57.9411 50.247 57.6734C49.6421 57.4058 49.1778 57.0268 48.8563 56.5318C48.5348 56.0368 48.3752 55.4447 48.3752 54.7532C48.3752 54.0545 48.5348 53.46 48.8563 52.965C49.1778 52.4724 49.6398 52.0911 50.247 51.8234C50.8543 51.5582 51.5831 51.4232 52.438 51.4232C53.3001 51.4232 54.0312 51.5558 54.6338 51.8234C55.2363 52.0911 55.6983 52.47 56.0198 52.965C56.3413 53.46 56.5008 54.0545 56.5008 54.7532C56.5008 55.4447 56.3413 56.0368 56.0198 56.5318C55.6983 57.0245 55.2363 57.4058 54.6338 57.6734C54.0312 57.9387 53.3001 58.0737 52.438 58.0737ZM52.438 56.9368C52.9667 56.9368 53.4335 56.8587 53.8336 56.7C54.2337 56.5413 54.548 56.3021 54.7766 55.98C55.0053 55.6579 55.1196 55.2482 55.1196 54.7555C55.1196 54.2629 55.0053 53.8532 54.7766 53.5311C54.548 53.209 54.2337 52.9674 53.8336 52.804C53.4335 52.6429 52.9667 52.5624 52.438 52.5624C51.9141 52.5624 51.4473 52.6429 51.0377 52.804C50.6281 52.965 50.3066 53.2066 50.0732 53.5311C49.8422 53.8532 49.7255 54.2629 49.7255 54.7555C49.7255 55.2482 49.8422 55.6579 50.0732 55.98C50.3042 56.3021 50.6257 56.5437 51.0377 56.7C51.4497 56.8587 51.9165 56.9368 52.438 56.9368Z" fill="white"/>
<path d="M57.7916 57.9434V51.5534H62.1521C62.6498 51.5534 63.0809 51.6221 63.4476 51.7547C63.8144 51.8897 64.1026 52.1005 64.3074 52.3871C64.5122 52.6737 64.6146 53.0408 64.6146 53.4884C64.6146 53.7916 64.5622 54.0474 64.455 54.2582C64.3478 54.469 64.2026 54.6395 64.0121 54.7721C63.8239 54.9047 63.6072 55.0042 63.3619 55.0729C63.1166 55.1416 62.8547 55.1866 62.5784 55.2055L62.4403 55.1274C62.9047 55.1345 63.2833 55.1724 63.5834 55.2411C63.8835 55.3097 64.1049 55.4353 64.255 55.6176C64.4026 55.7976 64.4788 56.0676 64.4788 56.4229V57.9434H63.1571V56.5105C63.1571 56.2666 63.1142 56.0771 63.0285 55.9421C62.9428 55.8071 62.788 55.7124 62.5665 55.6603C62.345 55.6082 62.0259 55.5821 61.6091 55.5821H59.1157V57.9434H57.7916ZM59.1133 54.5566H62.1521C62.5236 54.5566 62.807 54.4666 63.0023 54.2889C63.1976 54.1113 63.2952 53.8697 63.2952 53.5689C63.2952 53.28 63.1976 53.0597 63.0023 52.9058C62.807 52.7542 62.5236 52.6784 62.1521 52.6784H59.1133V54.5566Z" fill="white"/>
<path d="M66.184 51.5534H67.5057V57.9434H66.184V51.5534Z" fill="white"/>
<path d="M69.0751 51.5534H75.9767V52.65L70.2468 57.214L70.1277 56.8492H75.9767V57.9458H69.0751V56.8492L74.805 52.2853L74.924 52.65H69.0751V51.5534Z" fill="white"/>
<path d="M78.6892 55.2766V56.8469H83.6451V57.9434H77.3675V51.5534H83.6355V52.65H78.6892V54.2392H82.7425V55.2766H78.6892Z" fill="white"/>
<path d="M88.6795 51.5534C89.4011 51.5534 90.0037 51.6387 90.4871 51.8092C90.9705 51.9797 91.3563 52.2118 91.6445 52.5055C91.9327 52.7992 92.1375 53.1355 92.2613 53.5168C92.3828 53.8982 92.4447 54.3008 92.4447 54.7224C92.4447 55.1439 92.3756 55.5489 92.2423 55.9374C92.1065 56.3258 91.8922 56.6692 91.5969 56.97C91.3016 57.2708 90.9134 57.5076 90.4347 57.6805C89.9536 57.8558 89.3702 57.9411 88.6819 57.9411H85.0073V51.551H88.6795V51.5534ZM86.3266 56.8184H88.651C89.1273 56.8184 89.5226 56.7616 89.837 56.6455C90.1513 56.5295 90.4014 56.3732 90.5871 56.1766C90.7729 55.98 90.9039 55.755 90.9848 55.5039C91.0634 55.2529 91.1039 54.9947 91.1039 54.7247C91.1039 54.4547 91.0634 54.1989 90.9848 53.955C90.9062 53.7111 90.7729 53.4932 90.5871 53.3037C90.4014 53.1118 90.1513 52.9603 89.837 52.849C89.5226 52.7376 89.1273 52.6808 88.651 52.6808H86.3266V56.8184Z" fill="white"/>
<path d="M95.7025 55.7905H97.0433C97.0695 56.0155 97.1743 56.2168 97.3553 56.3968C97.5363 56.5792 97.7768 56.7189 98.0745 56.8208C98.3722 56.9226 98.708 56.9747 99.0771 56.9747C99.4153 56.9747 99.6939 56.9392 99.9106 56.8658C100.13 56.7947 100.292 56.6905 100.396 56.5603C100.501 56.4276 100.556 56.2713 100.556 56.0866C100.556 55.9089 100.489 55.7716 100.358 55.6768C100.227 55.5821 100.018 55.5016 99.732 55.44C99.4463 55.3784 99.0724 55.3145 98.6104 55.2482C98.246 55.1961 97.9007 55.1203 97.5768 55.0255C97.2529 54.9308 96.9647 54.8076 96.7171 54.6561C96.4694 54.5045 96.2741 54.3197 96.1312 54.0971C95.9883 53.8768 95.9169 53.614 95.9169 53.3108C95.9169 52.9342 96.024 52.6074 96.2384 52.3232C96.4527 52.0389 96.7742 51.8187 97.1957 51.6624C97.6173 51.5061 98.1388 51.4255 98.7556 51.4255C99.682 51.4255 100.396 51.6221 100.897 52.0129C101.397 52.4037 101.64 52.9437 101.628 53.6282H100.337C100.311 53.2397 100.146 52.9603 99.8463 52.7897C99.5463 52.6192 99.1652 52.5339 98.7104 52.5339C98.2865 52.5339 97.9364 52.5955 97.6625 52.721C97.3886 52.8466 97.2505 53.0597 97.2505 53.3629C97.2505 53.4813 97.2839 53.5855 97.3505 53.6732C97.4172 53.7632 97.5292 53.8389 97.6887 53.9053C97.8483 53.9716 98.0626 54.0332 98.3341 54.0924C98.6056 54.1516 98.9438 54.2108 99.3462 54.27C99.7225 54.3221 100.065 54.3932 100.375 54.4832C100.682 54.5732 100.947 54.6868 101.17 54.8289C101.392 54.9711 101.563 55.1511 101.682 55.3666C101.802 55.5845 101.861 55.8497 101.861 56.1671C101.861 56.5555 101.761 56.8942 101.559 57.1784C101.356 57.465 101.047 57.6876 100.625 57.8463C100.204 58.005 99.6606 58.0832 98.9914 58.0832C98.5151 58.0832 98.0936 58.0311 97.7292 57.9292C97.3648 57.8274 97.0505 57.69 96.7861 57.5195C96.5218 57.3489 96.3051 57.1595 96.1407 56.9558C95.974 56.7521 95.8573 56.5484 95.7883 56.3424C95.7168 56.1411 95.6883 55.9563 95.7025 55.7905Z" fill="white"/>
<path d="M104.343 55.2766V56.8469H109.298V57.9434H103.021V51.5534H109.289V52.65H104.343V54.2392H108.396V55.2766H104.343Z" fill="white"/>
<path d="M110.658 57.9434V51.5534H115.019C115.517 51.5534 115.948 51.6221 116.314 51.7547C116.681 51.8897 116.969 52.1005 117.174 52.3871C117.379 52.6737 117.481 53.0408 117.481 53.4884C117.481 53.7916 117.429 54.0474 117.322 54.2582C117.215 54.469 117.069 54.6395 116.879 54.7721C116.691 54.9047 116.474 55.0042 116.229 55.0729C115.983 55.1416 115.721 55.1866 115.445 55.2055L115.307 55.1274C115.771 55.1345 116.15 55.1724 116.45 55.2411C116.748 55.3097 116.972 55.4353 117.122 55.6176C117.269 55.7976 117.346 56.0676 117.346 56.4229V57.9434H116.024V56.5105C116.024 56.2666 115.981 56.0771 115.895 55.9421C115.809 55.8071 115.655 55.7124 115.433 55.6603C115.212 55.6082 114.893 55.5821 114.476 55.5821H111.982V57.9434H110.658ZM111.98 54.5566H115.019C115.39 54.5566 115.671 54.4666 115.869 54.2889C116.064 54.1113 116.162 53.8697 116.162 53.5689C116.162 53.28 116.064 53.0597 115.869 52.9058C115.674 52.7542 115.39 52.6784 115.019 52.6784H111.98V54.5566Z" fill="white"/>
<path d="M120.98 57.9434L118.139 51.5534H119.598L122.032 57.3229H121.575L123.999 51.5534H125.44L122.63 57.9434H120.98Z" fill="white"/>
<path d="M126.59 51.5534H127.912V57.9434H126.59V51.5534Z" fill="white"/>
<path d="M137.119 55.6437C137.059 56.1576 136.876 56.5958 136.574 56.9582C136.269 57.3205 135.854 57.5976 135.333 57.7871C134.809 57.9789 134.187 58.0737 133.466 58.0737C132.863 58.0737 132.313 58.005 131.813 57.8653C131.313 57.7279 130.882 57.5195 130.522 57.2424C130.16 56.9653 129.882 56.6218 129.684 56.2097C129.486 55.7976 129.386 55.3168 129.386 54.7626C129.386 54.2084 129.486 53.7253 129.684 53.3108C129.882 52.8963 130.163 52.5482 130.522 52.2687C130.884 51.9892 131.313 51.7784 131.813 51.6363C132.313 51.4942 132.863 51.4232 133.466 51.4232C134.187 51.4232 134.811 51.5226 135.338 51.7192C135.864 51.9158 136.278 52.1976 136.583 52.5647C136.888 52.9295 137.067 53.3724 137.119 53.8934H135.809C135.723 53.6163 135.578 53.3771 135.376 53.1782C135.173 52.9768 134.914 52.8253 134.597 52.7187C134.28 52.6145 133.902 52.56 133.466 52.56C132.923 52.56 132.447 52.6429 132.035 52.811C131.625 52.9792 131.306 53.2255 131.082 53.5524C130.856 53.8792 130.744 54.2818 130.744 54.7626C130.744 55.2363 130.856 55.6342 131.082 55.9587C131.308 56.2808 131.625 56.5271 132.035 56.6953C132.444 56.8634 132.92 56.9463 133.466 56.9463C133.902 56.9463 134.278 56.8942 134.592 56.7876C134.907 56.6811 135.164 56.5318 135.366 56.3329C135.569 56.1363 135.716 55.9042 135.809 55.6413H137.119V55.6437Z" fill="white"/>
<path d="M139.729 55.2766V56.8469H144.685V57.9434H138.407V51.5534H144.675V52.65H139.729V54.2392H143.782V55.2766H139.729Z" fill="white"/>
<path d="M155.94 55.6437C155.88 56.1576 155.697 56.5958 155.395 56.9582C155.09 57.3205 154.675 57.5976 154.154 57.7871C153.63 57.9789 153.008 58.0737 152.287 58.0737C151.684 58.0737 151.134 58.005 150.634 57.8653C150.134 57.7279 149.703 57.5195 149.343 57.2424C148.981 56.9653 148.703 56.6218 148.505 56.2097C148.307 55.7976 148.207 55.3168 148.207 54.7626C148.207 54.2084 148.307 53.7253 148.505 53.3108C148.703 52.8963 148.984 52.5482 149.343 52.2687C149.705 51.9892 150.134 51.7784 150.634 51.6363C151.134 51.4942 151.684 51.4232 152.287 51.4232C153.008 51.4232 153.632 51.5226 154.159 51.7192C154.685 51.9158 155.099 52.1976 155.404 52.5647C155.709 52.9295 155.888 53.3724 155.94 53.8934H154.63C154.544 53.6163 154.399 53.3771 154.197 53.1782C153.994 52.9768 153.735 52.8253 153.418 52.7187C153.101 52.6145 152.723 52.56 152.287 52.56C151.744 52.56 151.267 52.6429 150.855 52.811C150.446 52.9792 150.127 53.2255 149.903 53.5524C149.677 53.8792 149.565 54.2818 149.565 54.7626C149.565 55.2363 149.677 55.6342 149.903 55.9587C150.129 56.2808 150.446 56.5271 150.855 56.6953C151.265 56.8634 151.741 56.9463 152.287 56.9463C152.723 56.9463 153.099 56.8942 153.413 56.7876C153.728 56.6811 153.985 56.5318 154.187 56.3329C154.39 56.1363 154.537 55.9042 154.63 55.6413H155.94V55.6437Z" fill="white"/>
<path d="M158.55 55.2766V56.8469H163.506V57.9434H157.228V51.5534H163.496V52.65H158.55V54.2392H162.603V55.2766H158.55Z" fill="white"/>
<path d="M171.384 56.6408L170.967 56.8089V51.5534H172.289V57.9434H170.967L165.773 52.8963L166.19 52.7282V57.9434H164.868V51.5534H166.19L171.384 56.6408Z" fill="white"/>
<path d="M173.251 51.5534H180.024V52.65H173.251V51.5534ZM175.98 52.5126H177.302V57.9458H175.98V52.5126Z" fill="white"/>
<path d="M180.986 57.9434V51.5534H185.347C185.844 51.5534 186.275 51.6221 186.642 51.7547C187.009 51.8897 187.297 52.1005 187.502 52.3871C187.707 52.6737 187.809 53.0408 187.809 53.4884C187.809 53.7916 187.757 54.0474 187.65 54.2582C187.542 54.469 187.397 54.6395 187.207 54.7721C187.018 54.9047 186.802 55.0042 186.556 55.0729C186.311 55.1416 186.049 55.1866 185.773 55.2055L185.635 55.1274C186.099 55.1345 186.478 55.1724 186.778 55.2411C187.076 55.3097 187.299 55.4353 187.449 55.6176C187.597 55.7976 187.673 56.0676 187.673 56.4229V57.9434H186.352V56.5105C186.352 56.2666 186.309 56.0771 186.223 55.9421C186.137 55.8071 185.982 55.7124 185.761 55.6603C185.54 55.6082 185.22 55.5821 184.804 55.5821H182.31V57.9434H180.986ZM182.308 54.5566H185.347C185.718 54.5566 186.002 54.4666 186.197 54.2889C186.392 54.1113 186.49 53.8697 186.49 53.5689C186.49 53.28 186.392 53.0597 186.197 52.9058C186.002 52.7542 185.718 52.6784 185.347 52.6784H182.308V54.5566Z" fill="white"/>
<path d="M190.512 55.2766V56.8469H195.468V57.9434H189.19V51.5534H195.458V52.65H190.512V54.2392H194.565V55.2766H190.512Z" fill="white"/>
</svg>
