<svg width="100" height="100" viewBox="0 0 100 100" fill="none" xmlns="http://www.w3.org/2000/svg">
<path d="M98.669 39.5994C98.3047 41.4773 97.5594 43.2607 96.4791 44.8394C95.183 46.5778 93.3984 47.8907 91.3528 48.6103C89.3073 49.3299 87.0938 49.4237 84.9947 48.8796C82.8957 48.3355 81.0064 47.1783 79.568 45.5557C78.1296 43.933 77.2074 41.9185 76.919 39.7694C76.6356 37.5739 77.0079 35.3437 77.9891 33.3594C80.1591 28.6894 82.359 24.0294 84.529 19.3594C84.7568 18.6887 85.1888 18.1062 85.7646 17.6937C86.3403 17.2812 87.0308 17.0593 87.7391 17.0593C88.4473 17.0593 89.1378 17.2812 89.7135 17.6937C90.2893 18.1062 90.7213 18.6887 90.9491 19.3594C93.1291 24.0594 95.3591 28.7394 97.5091 33.4494C97.9651 34.6109 98.359 35.7959 98.689 36.9994C98.669 37.8394 98.669 38.7694 98.669 39.5994Z" fill="#0F4A86"/>
<path d="M60.699 21.4694C61.1079 19.515 61.6152 17.5826 62.219 15.6794C63.4094 12.6274 65.4707 9.99255 68.1465 8.10259C70.8223 6.21263 73.9946 5.15089 77.269 5.04938C81.039 4.96938 84.819 4.99938 88.599 5.04938C89.0483 5.0283 89.4973 5.09903 89.9184 5.25726C90.3395 5.41549 90.7239 5.65789 91.0482 5.96966C91.3725 6.28144 91.6298 6.65604 91.8045 7.07059C91.9791 7.48515 92.0674 7.93095 92.064 8.38078C92.0606 8.83061 91.9656 9.27503 91.7847 9.68689C91.6038 10.0988 91.3408 10.4694 91.0118 10.7763C90.6829 11.0831 90.2948 11.3197 89.8714 11.4715C89.4479 11.6233 88.998 11.6873 88.549 11.6594C84.989 11.6594 81.439 11.6594 77.879 11.6594C75.4963 11.6607 73.1879 12.4889 71.3477 14.0026C69.5076 15.5163 68.2498 17.6216 67.789 19.9594C67.6172 21.0137 67.5403 22.0813 67.559 23.1494C67.559 24.8794 67.109 26.7994 67.719 28.2894C68.329 29.7794 69.959 30.8594 71.229 32.0394C71.7459 32.5078 72.1515 33.0858 72.4162 33.7312C72.681 34.3765 72.7981 35.0729 72.759 35.7694C72.759 51.5027 72.759 67.236 72.759 82.9694C72.759 83.5694 72.759 84.1694 72.679 84.7594C72.446 87.7161 71.121 90.4802 68.9619 92.5136C66.8029 94.5469 63.9643 95.704 60.999 95.7594C51.939 95.8494 42.869 95.7594 33.809 95.7594C27.199 95.7594 20.589 95.8094 13.979 95.7594C11.2463 95.761 8.59617 94.8227 6.47317 93.1021C4.35017 91.3815 2.88343 88.9832 2.319 86.3094C2.09568 85.2645 1.99168 84.1977 2.00899 83.1294C2.00899 71.3627 2.00899 59.5927 2.00899 47.8194C1.89149 42.7555 2.92695 37.7311 5.03707 33.1263C7.14718 28.5215 10.2767 24.4567 14.189 21.2394C18.9958 17.1253 24.9091 14.52 31.189 13.7494C32.9972 13.5243 34.8169 13.4041 36.639 13.3894C41.269 13.3394 45.889 13.3894 50.519 13.3894C51.1613 13.3551 51.8033 13.4607 52.4007 13.699C52.9981 13.9373 53.5366 14.3025 53.979 14.7694C55.979 16.8494 58.059 18.8794 60.109 20.9194L60.699 21.4694ZM12.799 53.7694L41.259 24.2094C26.279 22.3994 11.299 33.5994 12.799 53.7694Z" fill="#0F4A86"/>
</svg>
