<svg width="100" height="100" viewBox="0 0 100 100" fill="none" xmlns="http://www.w3.org/2000/svg">
<path d="M72.7299 98.0619C70.8644 97.7366 69.0208 97.2957 67.2099 96.7419C58.7299 93.5919 53.5299 87.5619 51.9099 78.6319C51.4094 75.5762 51.525 72.4512 52.2496 69.4407C52.9743 66.4303 54.2936 63.5951 56.1298 61.1019C57.966 58.6086 60.2822 56.5076 62.9421 54.9224C65.602 53.3372 68.552 52.2998 71.6186 51.8711C74.6852 51.4425 77.8066 51.6312 80.7993 52.4263C83.7919 53.2214 86.5954 54.6067 89.0449 56.5009C91.4944 58.3951 93.5405 60.7599 95.0629 63.4562C96.5853 66.1526 97.5533 69.1261 97.9099 72.2019C97.9483 72.3839 98.0053 72.5615 98.0799 72.7319V76.6719C97.9599 77.3119 97.8499 77.9519 97.7299 78.5819C96.1199 87.1719 91.2599 93.1619 83.1899 96.4319C81.065 97.1298 78.8927 97.6745 76.6899 98.0619H72.7299ZM74.7299 90.1719C77.7729 90.1778 80.7493 89.2815 83.2831 87.5962C85.8168 85.911 87.794 83.5124 88.9649 80.7037C90.1358 77.895 90.4478 74.8022 89.8614 71.8162C89.275 68.8303 87.8165 66.0852 85.6704 63.9279C83.5243 61.7705 80.7868 60.2979 77.8039 59.696C74.821 59.0941 71.7267 59.39 68.9119 60.5463C66.0972 61.7025 63.6884 63.6673 61.99 66.1922C60.2915 68.7172 59.3798 71.6889 59.3699 74.7319C59.3673 76.7569 59.7635 78.7626 60.536 80.6344C61.3085 82.5063 62.4421 84.2076 63.8722 85.6413C65.3022 87.0751 67.0006 88.2131 68.8704 88.9905C70.7403 89.7678 72.7449 90.1693 74.7699 90.1719H74.7299Z" fill="#0F4A86"/>
<path d="M69.2 10.6818C71.14 10.6818 72.99 10.5318 74.81 10.6818C76.3093 10.8314 77.6935 11.5528 78.6748 12.6962C79.6562 13.8396 80.1594 15.3171 80.08 16.8218C80.08 21.6718 80.08 26.5118 80.08 31.3618V45.8618L73.36 45.3818V31.6818H8.77V66.9518C8.77 70.3918 10.53 72.1518 13.96 72.1518H44.48C44.66 74.6718 44.84 77.1518 45.02 79.6618H8.62C4.44 79.6618 2 77.2018 2 73.0018V17.2718C2 13.0718 4.45 10.6218 8.63 10.6118H12.83C12.83 10.9218 12.88 11.1918 12.89 11.4618V16.3418C12.89 20.7618 15.53 23.4118 19.97 23.3418C21.3683 23.3926 22.7642 23.1893 24.09 22.7418C25.2676 22.2801 26.2692 21.458 26.9516 20.393C27.6341 19.3281 27.9625 18.0746 27.89 16.8118C27.89 14.8118 27.89 12.7518 27.89 10.6718H54.2C54.2 12.2218 54.3 13.7518 54.2 15.2718C53.79 20.5318 56.84 23.8018 62.39 23.4018C63.9261 23.4018 65.4258 22.9344 66.69 22.0618C67.4989 21.4455 68.1487 20.6447 68.5854 19.7262C69.022 18.8078 69.2327 17.7982 69.2 16.7818C69.2 14.7618 69.2 12.7618 69.2 10.6818Z" fill="#0F4A86"/>
<path d="M24.1398 10.802C24.1398 12.802 24.1398 14.742 24.1398 16.702C24.1793 17.0969 24.1301 17.4957 23.996 17.8692C23.8619 18.2428 23.6462 18.5818 23.3646 18.8615C23.0829 19.1411 22.7425 19.3545 22.3681 19.4861C21.9936 19.6177 21.5945 19.6641 21.1998 19.622C20.5098 19.622 19.8198 19.622 19.1398 19.622C18.4739 19.6142 17.8375 19.3462 17.3665 18.8753C16.8956 18.4044 16.6276 17.7679 16.6198 17.102C16.5798 12.9153 16.5798 8.72865 16.6198 4.54198C16.6211 4.20542 16.6891 3.87244 16.8197 3.56224C16.9503 3.25205 17.141 2.97078 17.3808 2.73465C17.6207 2.49853 17.9049 2.31222 18.2171 2.18647C18.5293 2.06072 18.8633 1.99802 19.1998 2.00199C19.9498 2.00199 20.6998 2.00199 21.4498 2.00199C21.8108 1.98792 22.1708 2.04866 22.5072 2.18038C22.8435 2.31209 23.149 2.51194 23.4045 2.76738C23.6599 3.02281 23.8597 3.32831 23.9915 3.66468C24.1232 4.00105 24.1839 4.36102 24.1698 4.72198C24.1998 6.74198 24.1398 8.77198 24.1398 10.802Z" fill="#0F4A86"/>
<path d="M65.4099 10.8017C65.4099 12.8017 65.4099 14.7417 65.4099 16.7017C65.4483 17.093 65.3999 17.4879 65.268 17.8583C65.1362 18.2287 64.9242 18.5653 64.6471 18.8443C64.3701 19.1232 64.0349 19.3376 63.6654 19.472C63.296 19.6063 62.9014 19.6575 62.5099 19.6217C61.8199 19.6217 61.1299 19.6217 60.4499 19.6217C59.7848 19.6114 59.1498 19.3426 58.6794 18.8723C58.209 18.4019 57.9402 17.7669 57.9299 17.1018C57.8899 12.9151 57.8899 8.72842 57.9299 4.54175C57.935 3.87579 58.2005 3.23827 58.6696 2.76549C59.1386 2.2927 59.774 2.02218 60.4399 2.01175C61.1899 2.01175 61.9399 2.01175 62.6899 2.01175C63.0509 1.99769 63.4108 2.05842 63.7472 2.19014C64.0836 2.32186 64.3891 2.52171 64.6445 2.77715C64.8999 3.03258 65.0998 3.33808 65.2315 3.67444C65.3632 4.01081 65.424 4.37079 65.4099 4.73175C65.4299 6.74175 65.4099 8.77175 65.4099 10.8017Z" fill="#0F4A86"/>
<path d="M29.09 43.0018C29.0643 44.1729 28.693 45.3102 28.0227 46.2708C27.3524 47.2314 26.413 47.9724 25.3227 48.4006C24.2325 48.8287 23.0399 48.925 21.8951 48.6773C20.7502 48.4295 19.7042 47.8488 18.8885 47.0082C18.0728 46.1675 17.5238 45.1045 17.3106 43.9527C17.0975 42.8009 17.2296 41.6118 17.6903 40.5349C18.1511 39.458 18.92 38.5414 19.9004 37.9003C20.8807 37.2592 22.0287 36.9223 23.2 36.9318C24.7844 36.9608 26.2929 37.6153 27.3964 38.7525C28.4999 39.8897 29.1088 41.4173 29.09 43.0018Z" fill="#0F4A86"/>
<path d="M64.84 42.902C64.8361 43.682 64.6785 44.4536 64.3764 45.1728C64.0742 45.892 63.6334 46.5446 63.079 47.0934C62.5247 47.6422 61.8676 48.0764 61.1455 48.3713C60.4233 48.6662 59.6501 48.8159 58.87 48.812C58.09 48.808 57.3183 48.6505 56.5992 48.3483C55.88 48.0462 55.2274 47.6053 54.6786 47.051C54.1298 46.4966 53.6956 45.8396 53.4007 45.1174C53.1058 44.3952 52.9561 43.622 52.96 42.842C52.968 41.2666 53.6014 39.7589 54.721 38.6505C55.8406 37.5422 57.3546 36.924 58.93 36.932C60.5054 36.9399 62.0131 37.5734 63.1215 38.693C64.2298 39.8125 64.848 41.3266 64.84 42.902Z" fill="#0F4A86"/>
<path d="M29.0901 60.8918C29.0783 62.0615 28.7213 63.2016 28.0641 64.1691C27.4069 65.1367 26.4786 65.8887 25.3957 66.3308C24.3128 66.773 23.1235 66.8855 21.9768 66.6544C20.8302 66.4233 19.7773 65.8588 18.9502 65.0318C18.1231 64.2047 17.5587 63.1518 17.3275 62.0052C17.0964 60.8585 17.209 59.6692 17.6511 58.5863C18.0933 57.5034 18.8453 56.5751 19.8129 55.9179C20.7804 55.2606 21.9205 54.9037 23.0901 54.8918C24.6814 54.8918 26.2076 55.524 27.3328 56.6492C28.458 57.7744 29.0901 59.3005 29.0901 60.8918Z" fill="#0F4A86"/>
<path d="M46.9798 43.0218C46.9616 44.2104 46.5908 45.3668 45.9144 46.3443C45.238 47.3218 44.2865 48.0764 43.1806 48.5122C42.0747 48.9481 40.8642 49.0457 39.7027 48.7925C38.5413 48.5394 37.4812 47.947 36.657 47.0904C35.8328 46.2338 35.2815 45.1517 35.0733 43.9814C34.865 42.8111 35.0091 41.6052 35.4872 40.5169C35.9653 39.4286 36.7559 38.5068 37.7587 37.8685C38.7616 37.2302 39.9314 36.9042 41.1198 36.9318C42.7024 36.9685 44.2063 37.6292 45.304 38.77C46.4016 39.9107 47.0039 41.4389 46.9798 43.0218Z" fill="#0F4A86"/>
<path d="M35.0699 60.7819C35.0861 59.5925 35.4556 58.4347 36.1313 57.4556C36.807 56.4766 37.7584 55.7205 38.8648 55.2835C39.9711 54.8464 41.1825 54.748 42.3448 55.0009C43.5072 55.2538 44.5682 55.8465 45.393 56.7037C46.2177 57.5609 46.7691 58.6439 46.977 59.8152C47.1849 60.9865 47.0399 62.1931 46.5605 63.2818C46.0811 64.3705 45.2889 65.2921 44.2846 65.9295C43.2803 66.567 42.1091 66.8915 40.9199 66.8619C39.3408 66.8226 37.8409 66.1621 36.7457 65.0238C35.6505 63.8856 35.0483 62.3614 35.0699 60.7819Z" fill="#0F4A86"/>
<path d="M72.5001 64.3318H77.7301V77.7418H64.3301V72.5718H72.5001V64.3318Z" fill="#0F4A86"/>
</svg>
