<svg width="100" height="100" viewBox="0 0 100 100" fill="none" xmlns="http://www.w3.org/2000/svg">
<path d="M18.64 45.3773C19.5 45.3773 20.28 45.4273 21.04 45.3773C21.6714 45.3591 22.2787 45.1309 22.7659 44.7289C23.2531 44.3268 23.5924 43.7738 23.73 43.1573C23.9858 42.127 24.1762 41.0816 24.3 40.0273C24.37 39.5473 24.56 39.3773 25.05 39.3773C28.6 39.3773 32.16 39.3773 35.71 39.3773H36.31L35.13 31.4573H35.24C35.35 31.6273 35.47 31.7973 35.57 31.9773C36.72 34.1073 37.88 36.2373 39.02 38.3673C39.93 40.0673 40.91 40.5073 42.86 40.3673C44.6378 40.2572 46.4201 40.2372 48.2 40.3073C48.8165 40.3506 49.4308 40.1979 49.9553 39.871C50.4797 39.5441 50.8874 39.0598 51.12 38.4873C51.41 37.7873 51.61 37.0573 51.86 36.3473C51.92 36.1773 51.96 35.9473 52.08 35.8473C52.2669 35.6961 52.4917 35.5992 52.73 35.5673C52.82 35.5673 52.99 35.7773 53.05 35.9173C53.39 36.7573 53.73 37.5973 54.05 38.4573C54.0958 38.677 54.2266 38.8698 54.4139 38.9934C54.6013 39.1171 54.8299 39.1616 55.05 39.1173C55.4027 39.0873 55.7573 39.0873 56.11 39.1173C56.2511 39.1164 56.3908 39.1454 56.5199 39.2024C56.649 39.2594 56.7646 39.3431 56.859 39.4479C56.9535 39.5528 57.0247 39.6764 57.0679 39.8107C57.1112 39.9451 57.1255 40.087 57.11 40.2273C57.06 41.9973 57.01 43.7573 56.89 45.5173C56.83 46.4373 56.33 46.8473 55.39 46.8873C49.59 47.1773 43.79 47.4573 37.99 47.7673C37.61 47.7673 37.49 47.6673 37.44 47.3273C37.2805 46.2573 37.0534 45.1985 36.76 44.1573C36.76 44.7773 36.64 45.4073 36.61 46.0273C36.23 53.3606 35.8567 60.7206 35.49 68.1073C35.2 73.9773 34.95 79.8373 34.68 85.7073C34.68 85.9273 34.68 86.1473 34.68 86.3673C34.6644 86.7493 34.7715 87.1262 34.9857 87.4429C35.1998 87.7596 35.5097 87.9995 35.87 88.1273L36.53 88.3773C37.0343 88.5283 37.4848 88.8203 37.8286 89.219C38.1723 89.6176 38.3949 90.1063 38.47 90.6273C38.5293 90.8141 38.542 91.0126 38.5068 91.2054C38.4717 91.3982 38.3899 91.5795 38.2686 91.7334C38.1472 91.8873 37.99 92.0091 37.8107 92.0882C37.6314 92.1674 37.4355 92.2014 37.24 92.1873C36.48 92.1873 35.72 92.1873 34.97 92.1873L28.76 92.2673C28.4902 92.2822 28.2198 92.2822 27.95 92.2673C27.7576 92.2732 27.5661 92.2373 27.389 92.162C27.2118 92.0867 27.053 91.9739 26.9237 91.8313C26.7944 91.6886 26.6976 91.5196 26.64 91.3359C26.5823 91.1522 26.5653 90.9582 26.59 90.7673C26.59 88.1773 26.59 85.5873 26.68 82.9873C26.68 80.0773 26.77 77.1673 26.81 74.2473C26.81 72.6673 26.88 71.0873 26.87 69.4973C26.8346 68.8739 26.7645 68.2529 26.66 67.6373H26.44C26.3723 67.8941 26.3189 68.1545 26.28 68.4173L24.54 81.4773C24.32 83.1773 24.11 84.8873 23.88 86.5873C23.8177 86.9955 23.8503 87.4126 23.9751 87.8063C24.1 88.1999 24.3138 88.5596 24.6 88.8573C24.8877 89.1943 25.0901 89.5956 25.19 90.0273C25.2988 90.6487 25.3656 91.2768 25.39 91.9073H15.5C15.5 91.2073 15.5 90.5073 15.5 89.8073C15.68 85.6073 15.87 81.4039 16.07 77.1973C16.25 73.3473 16.45 69.4973 16.63 65.6473C16.6262 65.4806 16.6667 65.3158 16.7476 65.17C16.8284 65.0241 16.9466 64.9024 17.09 64.8173C17.66 64.4573 18.2 64.0473 18.77 63.7073C19.4097 63.2907 20.1566 63.069 20.92 63.069C21.6834 63.069 22.4303 63.2907 23.07 63.7073C23.7678 64.1597 24.5892 64.3834 25.42 64.3473C25.8592 64.3026 26.2848 64.1698 26.6715 63.9567C27.0581 63.7437 27.3977 63.4547 27.67 63.1073L25.35 62.6173V60.3273H27.62C27.528 59.9974 27.3712 59.6891 27.1589 59.4205C26.9465 59.1518 26.6828 58.9281 26.383 58.7624C26.0833 58.5968 25.7536 58.4924 25.4132 58.4555C25.0727 58.4185 24.7283 58.4497 24.4 58.5473C23.6635 58.7726 22.9159 58.9596 22.16 59.1073C21.7118 59.1857 21.2516 59.1611 20.8143 59.0354C20.3769 58.9097 19.9739 58.6862 19.6357 58.3817C19.2976 58.0773 19.0331 57.6999 18.8623 57.2781C18.6915 56.8563 18.6189 56.4012 18.65 55.9473C18.7 52.6173 18.65 49.2773 18.65 45.9473C18.6572 45.7572 18.6539 45.5669 18.64 45.3773Z" fill="#0F4A86"/>
<path d="M47.2201 63.1773C46.4901 62.7673 45.8701 62.3973 45.2201 62.0673C44.9997 61.9782 44.8183 61.8135 44.7084 61.6028C44.5984 61.392 44.5671 61.149 44.6201 60.9173C44.613 60.6535 44.6636 60.3914 44.7684 60.1493C44.8732 59.9072 45.0297 59.6909 45.2269 59.5156C45.4241 59.3403 45.6573 59.2103 45.91 59.1345C46.1628 59.0588 46.429 59.0393 46.6901 59.0773C47.3101 59.0773 47.9301 59.1673 48.5601 59.1673C49.2797 59.1679 49.989 58.9967 50.629 58.668C51.2691 58.3393 51.8214 57.8625 52.2401 57.2773C52.5204 56.9185 52.7808 56.5446 53.0201 56.1573C53.5313 55.2984 54.267 54.5951 55.1479 54.1229C56.0289 53.6507 57.0218 53.4275 58.0201 53.4773L69.9401 53.5373C71.9401 53.5373 73.9401 53.5373 76.0001 53.5373C77.0101 53.5098 78.0079 53.7636 78.882 54.2704C79.7561 54.7772 80.4721 55.5171 80.9501 56.4073C81.5196 57.4479 82.4114 58.2756 83.4915 58.7661C84.5717 59.2566 85.7818 59.3833 86.9401 59.1273C88.3901 58.9773 88.6601 59.1273 89.0601 60.5673C89.1601 60.9173 89.2601 61.2773 89.3601 61.6573L86.7301 63.0273C86.7301 63.0273 86.7301 63.1273 86.7301 63.1473C87.3162 63.6957 87.7722 64.3683 88.0646 65.1158C88.357 65.8633 88.4785 66.6668 88.4201 67.4673C88.4201 71.6073 88.4201 75.7506 88.4201 79.8973V80.5573C88.6501 80.5573 88.8401 80.5573 89.0401 80.5573H94.6001C95.2401 80.5573 95.3601 80.6973 95.4701 81.5573C95.5501 82.1773 95.3701 82.5573 94.8501 82.6473C94.6369 82.6958 94.4187 82.7193 94.2001 82.7173H39.9401C38.6301 82.7173 38.4301 82.4873 38.6001 81.1873C38.6133 81.0563 38.6333 80.9262 38.6601 80.7973H45.3301V78.6573C45.3301 75.4073 45.3301 72.1573 45.3301 68.9073C45.2201 66.7973 45.4801 64.7973 47.2201 63.1773ZM50.9701 61.9373H82.7101C82.6301 61.8173 82.6001 61.7373 82.5501 61.6773C81.2301 60.1273 79.9301 58.5573 78.5501 57.0373C78.1248 56.5645 77.603 56.1886 77.0198 55.935C76.4367 55.6814 75.8059 55.556 75.1701 55.5673C72.5901 55.5673 70.0201 55.4773 67.4401 55.4773C64.1901 55.4773 60.9401 55.4773 57.6901 55.5573C57.2783 55.5432 56.8691 55.6264 56.4955 55.8001C56.1219 55.9739 55.7946 56.2333 55.5401 56.5573C54.2901 58.0773 52.9801 59.5573 51.7001 61.0473L50.9701 61.9373ZM79.5001 77.6773H54.4101V80.5373H79.5001V77.6773ZM56.5001 68.7773C56.0701 68.1773 55.7301 67.7073 55.4001 67.2273C55.2346 66.9919 55.0203 66.7951 54.7718 66.6501C54.5233 66.5051 54.2464 66.4155 53.9601 66.3873C52.3701 66.2073 50.7901 66.0273 49.2001 65.8673C48.0701 65.7473 48.0701 65.7673 47.9301 66.8673C47.7301 68.4873 48.1001 68.9573 49.7201 69.1673H49.9701C51.7801 69.1673 53.6001 69.2473 55.4101 69.2173C55.8001 69.2773 56.1401 68.9673 56.5401 68.7773H56.5001ZM77.6901 68.4873C78.3729 69.0742 79.2398 69.4033 80.1401 69.4173C81.6701 69.3473 83.1401 69.2273 84.7201 69.0873C85.0146 69.0847 85.2965 68.9673 85.5057 68.7599C85.7149 68.5526 85.8349 68.2718 85.8401 67.9773C85.9001 67.2173 85.8401 66.4473 85.8401 65.6273C83.6901 65.9073 81.6901 66.1573 79.7001 66.4573C79.3391 66.536 79.013 66.7288 78.7701 67.0073C78.3876 67.4745 78.04 67.9691 77.7301 68.4873H77.6901Z" fill="#0F4A86"/>
<path d="M19.38 43.5674C19.54 42.2074 19.69 40.8674 19.86 39.5674C19.96 38.7574 19.86 38.5674 19.04 38.3474C18.3593 40.931 17.8713 43.5616 17.58 46.2174C17.2317 49.6335 17.1882 53.0737 17.45 56.4974C17.4939 57.2276 17.7629 57.9263 18.22 58.4974C18.6905 59.0451 18.9726 59.7295 19.0248 60.4496C19.077 61.1697 18.8965 61.8876 18.51 62.4974C18.3471 62.8372 18.0681 63.1076 17.7234 63.2598C17.3786 63.412 16.9909 63.436 16.63 63.3274C15.09 62.9874 13.55 62.6074 12.01 62.2674C10.7037 61.9828 9.34422 62.0623 8.08 62.4974C7.3883 62.7611 6.62916 62.7904 5.91918 62.5809C5.2092 62.3713 4.58765 61.9345 4.15 61.3374C4.15 61.2774 4.07 61.2074 4 61.1074H6.63C6.74 60.3374 6.86 59.5274 6.98 58.7074L4.59 58.0274C4.85798 57.4996 5.32315 57.0987 5.8847 56.9115C6.44625 56.7243 7.05895 56.766 7.59 57.0274L10.59 58.2374L10.83 58.3074C11.35 58.4474 11.45 58.3774 11.45 57.8274C11.45 57.2774 11.45 56.8874 11.45 56.4174C11.52 53.7474 11.54 51.0674 11.67 48.4174C11.83 45.0774 12.05 41.7274 12.32 38.4174C12.4447 36.4881 12.6851 34.568 13.04 32.6674C13.2767 31.6271 13.7246 30.6465 14.3559 29.7864C14.9872 28.9263 15.7885 28.2051 16.71 27.6674C17.1703 27.3317 17.7253 27.1509 18.295 27.1509C18.8647 27.1509 19.4197 27.3317 19.88 27.6674C21.5652 28.7365 22.9861 30.1739 24.0358 31.8713C25.0854 33.5687 25.7365 35.4821 25.94 37.4674C25.9465 37.574 25.9465 37.6809 25.94 37.7874H24.19C23.39 37.7874 23.08 38.0174 22.92 38.7874C22.76 39.5574 22.59 40.4074 22.48 41.2174C22.4843 41.5957 22.3999 41.9696 22.2335 42.3093C22.0672 42.649 21.8235 42.945 21.5221 43.1735C21.2207 43.402 20.8699 43.5566 20.4979 43.6251C20.1259 43.6935 19.743 43.6737 19.38 43.5674Z" fill="#0F4A86"/>
<path d="M19.0501 16.5473C18.5234 15.3328 18.3519 13.9939 18.5554 12.6859C18.759 11.3779 19.3293 10.1543 20.2001 9.15733C20.9804 8.44761 21.9202 7.9365 22.9401 7.66734C24.9515 7.08376 27.0541 6.88029 29.1401 7.06734C29.95 7.14363 30.7223 7.44551 31.3693 7.93868C32.0162 8.43186 32.5119 9.09658 32.8001 9.85734C32.9701 10.1873 33.1201 10.5273 33.3101 10.8573C33.6366 11.4029 34.1182 11.8389 34.6934 12.1096C35.2687 12.3803 35.9116 12.4735 36.5401 12.3773C37.2629 12.3374 37.9873 12.3374 38.7101 12.3773C38.9824 12.413 39.2318 12.5484 39.4101 12.7573C39.4801 12.8373 39.3101 13.1573 39.2001 13.3473C39.0901 13.5373 38.8801 13.7873 38.7401 14.0073C38.6307 14.175 38.4829 14.3141 38.309 14.4132C38.1351 14.5123 37.9401 14.5686 37.7401 14.5773L24.2601 16.0273C22.5201 16.1973 20.7801 16.3673 19.0501 16.5473Z" fill="#0F4A86"/>
<path d="M32.9398 16.3374C33.2565 17.3302 33.338 18.383 33.1779 19.4127C33.0177 20.4424 32.6203 21.4207 32.017 22.2704C31.4137 23.1201 30.621 23.8178 29.7017 24.3084C28.7823 24.7991 27.7615 25.0692 26.7198 25.0974C25.5576 25.1138 24.4116 24.8239 23.397 24.257C22.3823 23.69 21.5349 22.8658 20.9398 21.8674C20.1169 20.6875 19.6359 19.3033 19.5498 17.8674L32.9398 16.3374Z" fill="#0F4A86"/>
<path d="M34.4899 37.5673H28.2099C27.7187 33.6068 25.8538 29.9442 22.9399 27.2173C23.1699 27.2173 23.2899 27.2173 23.3999 27.2873C25.9699 28.0273 28.5299 28.7573 31.0899 29.5173C31.2393 29.5531 31.3799 29.6184 31.5036 29.7094C31.6272 29.8005 31.7314 29.9153 31.8099 30.0473C32.7199 32.5173 33.5799 35.0273 34.4899 37.5673Z" fill="#0F4A86"/>
</svg>
