<svg width="100" height="100" viewBox="0 0 100 100" fill="none" xmlns="http://www.w3.org/2000/svg">
<path d="M99.0647 15.6738C96.9958 19.3397 94.9179 23.0178 92.8308 26.7079C92.0051 28.1598 90.9706 28.432 89.5187 27.6153C88.448 27.0255 87.3954 26.4085 86.2702 25.8005C86.0615 26.1453 85.871 26.4357 85.7076 26.7079L63.1131 66.3346C62.0333 68.222 61.1531 68.467 59.2656 67.3963C56.0716 65.5814 52.8805 63.7666 49.6925 61.9518C48.0047 60.9899 47.7415 59.9827 48.7125 58.3222C56.2379 45.1102 63.7664 31.9014 71.2979 18.6955C71.4885 18.3688 71.67 18.0331 71.8877 17.6338L68.739 15.819C67.2146 14.9116 66.9242 13.8953 67.7862 12.3527C69.6555 9.04365 71.5369 5.74067 73.4303 2.44375C74.3378 0.901146 75.3631 0.628924 76.8876 1.46374C83.8021 5.38981 90.7105 9.32193 97.6129 13.2601C98.1587 13.6883 98.6468 14.1854 99.0647 14.7392V15.6738ZM52.9954 59.0481L60.1549 63.1314L61.1621 61.3801L60.899 61.0898C60.5408 60.7847 60.2984 60.3657 60.2125 59.9031C60.1266 59.4404 60.2024 58.9624 60.4271 58.549C60.6643 58.1666 61.0141 57.8671 61.4285 57.6916C61.8428 57.5161 62.3014 57.4733 62.741 57.569C62.8941 57.5609 63.0436 57.5202 63.1797 57.4498C63.3158 57.3794 63.4354 57.2808 63.5305 57.1607C63.7898 56.8 64.0117 56.4139 64.1929 56.0083C64.1319 55.9194 64.0652 55.8345 63.9933 55.7542C63.6336 55.453 63.3853 55.0398 63.2883 54.5808C63.1912 54.1218 63.2509 53.6435 63.4579 53.2225C63.8753 52.3877 64.6466 52.0882 65.8353 52.1971C65.9768 52.1888 66.115 52.1514 66.2414 52.0874C66.3679 52.0234 66.4798 51.9341 66.5703 51.8251C66.8444 51.4223 67.09 51.0008 67.3053 50.5638C66.864 50.2983 66.5388 49.8765 66.3942 49.3823C66.2496 48.888 66.2963 48.3574 66.5249 47.896C67.1238 46.6347 68.249 46.6438 69.4196 46.8978L70.327 45.2101C69.3742 44.2119 69.1383 43.2954 69.6101 42.4878C70.2544 41.3263 71.2979 41.2537 72.4413 41.5804L72.9494 40.673C73.1037 40.4008 73.2489 40.1195 73.385 39.8563C72.3959 38.7311 72.2053 37.9054 72.6953 37.0343C73.1853 36.1632 74.002 35.8728 75.5355 36.1269L76.443 34.4572C76.2133 34.2251 76.001 33.9764 75.8078 33.7132C75.5815 33.3951 75.4599 33.0145 75.4599 32.6243C75.4599 32.234 75.5815 31.8534 75.8078 31.5354C75.9951 31.1906 76.2891 30.9158 76.6457 30.7522C77.0024 30.5886 77.4024 30.545 77.7859 30.628C78.53 30.8457 78.7659 30.51 79.02 29.9928C79.1743 29.6842 79.3467 29.3757 79.5191 29.0854C78.6117 28.305 78.2124 27.3885 78.8022 26.3631C79.0205 25.9222 79.3952 25.5785 79.8532 25.3989C80.3112 25.2194 80.8197 25.217 81.2795 25.3922C81.3803 25.3961 81.4807 25.3759 81.5722 25.3333C81.6638 25.2907 81.7438 25.2269 81.8057 25.1472C82.1052 24.7116 82.3411 24.2398 82.6224 23.7225L75.4992 19.6664C75.3541 19.8842 75.2633 20.0022 75.1817 20.1383C74.9367 20.5557 74.7098 20.9731 74.4739 21.3814C75.4902 22.4975 75.7079 23.3505 75.1726 24.2579C74.5192 25.365 73.4848 25.3922 72.3505 25.0927L71.4613 26.7079C72.4413 27.7696 72.65 28.6044 72.1872 29.5118C71.7244 30.4192 70.9259 30.6915 69.3288 30.4192L68.984 30.9909C68.612 31.5898 68.24 32.0889 68.984 32.8057C69.2414 33.1053 69.3881 33.4841 69.3997 33.8789C69.4113 34.2736 69.2869 34.6604 69.0475 34.9745C68.8495 35.307 68.5553 35.5717 68.2038 35.7337C67.8523 35.8957 67.4599 35.9474 67.0785 35.8819C66.8062 35.8819 66.534 35.7821 66.2618 35.7276C66.0712 36.0543 65.9079 36.3265 65.7536 36.635C65.5994 36.9435 65.4723 37.1885 65.3453 37.4335C66.3253 38.4952 66.5159 39.2484 66.0622 40.1558C65.6085 41.0632 64.9461 41.281 63.6122 41.163C63.4978 41.1632 63.3849 41.1884 63.2814 41.237C63.1779 41.2856 63.0864 41.3564 63.0133 41.4443C62.7466 41.8548 62.5013 42.2789 62.2783 42.7147C62.3218 42.802 62.3703 42.8869 62.4234 42.9687C63.2855 43.8762 63.476 44.6838 62.977 45.573C62.7759 46.0152 62.4218 46.3698 61.9799 46.5716C61.538 46.7733 61.0382 46.8087 60.5723 46.671C60.4453 46.666 60.319 46.6914 60.2038 46.745C60.0885 46.7987 59.9878 46.8791 59.9099 46.9795C59.6348 47.3865 59.3862 47.8108 59.1658 48.2499C60.0732 49.0484 60.4997 49.974 59.8736 51.0901C59.2475 52.2062 58.204 52.2516 57.0697 51.9521C56.9064 52.2153 56.7521 52.4603 56.6069 52.7144L56.1079 53.6218C57.1151 54.756 57.3147 55.5818 56.8066 56.4983C56.2984 57.4147 55.4817 57.6234 53.9664 57.3512L52.9954 59.0481ZM72.1509 12.9425L90.0814 23.169C91.4697 20.7462 92.8036 18.4051 94.1738 16.0005L87.0052 11.9171C86.6604 12.516 86.3791 13.0514 86.0978 13.5595C85.9767 13.8052 85.8075 14.0241 85.6004 14.2033C85.3933 14.3825 85.1524 14.5184 84.8919 14.603C84.6314 14.6875 84.3566 14.7191 84.0837 14.6957C83.8108 14.6724 83.5453 14.5946 83.303 14.467C83.0534 14.3329 82.8335 14.1496 82.6567 13.9282C82.4799 13.7068 82.3498 13.4518 82.2744 13.1787C82.1989 12.9056 82.1796 12.62 82.2175 12.3393C82.2555 12.0585 82.35 11.7883 82.4954 11.5451C82.7676 10.9734 83.1034 10.438 83.4028 9.83008L76.2524 5.7558C74.8731 8.16951 73.5302 10.5106 72.1509 12.9425Z" fill="#0F4A86"/>
<path d="M99.0648 75.8624C96.7509 79.7915 94.3825 83.6933 92.1594 87.6587C91.8645 88.3139 91.3712 88.86 90.7493 89.2198C90.1273 89.5796 89.4081 89.735 88.6931 89.6641C84.4101 89.5643 80.118 89.6097 75.8351 89.6641C75.3053 89.6993 74.777 89.5756 74.3179 89.3089C73.8589 89.0422 73.4898 88.6445 73.258 88.1669C71.0621 84.3376 68.8389 80.5295 66.5885 76.7426C66.2803 76.2905 66.1155 75.7561 66.1155 75.209C66.1155 74.6619 66.2803 74.1275 66.5885 73.6755C68.8389 69.8825 71.0621 66.0744 73.258 62.2512C73.4902 61.7744 73.8596 61.378 74.3188 61.1128C74.778 60.8476 75.3061 60.7258 75.8351 60.763C80.3721 60.763 84.8547 60.763 89.3736 60.763C89.8556 60.7291 90.337 60.8375 90.758 61.0746C91.179 61.3117 91.5211 61.6672 91.742 62.0969C94.1648 66.3073 96.6148 70.5086 99.0557 74.7099L99.0648 75.8624ZM82.559 85.5263C84.3738 85.5263 86.1069 85.5263 87.8764 85.5263C88.0803 85.5089 88.2781 85.4481 88.4565 85.3479C88.6349 85.2478 88.7898 85.1106 88.9108 84.9455C90.7257 81.9208 92.5072 78.8598 94.2555 75.7625C94.3338 75.5917 94.3743 75.406 94.3743 75.2181C94.3743 75.0302 94.3338 74.8445 94.2555 74.6737C92.5012 71.5945 90.7196 68.5335 88.9108 65.4906C88.7895 65.3252 88.6347 65.1872 88.4564 65.0856C88.2782 64.9839 88.0806 64.921 87.8764 64.9008C84.3284 64.9008 80.7895 64.9008 77.2415 64.9008C77.0054 64.8839 76.7701 64.9425 76.5695 65.0681C76.3688 65.1936 76.2133 65.3798 76.1254 65.5995C74.3832 68.6121 72.641 71.6157 70.8624 74.6101C70.7257 74.8022 70.6522 75.0322 70.6522 75.268C70.6522 75.5038 70.7257 75.7338 70.8624 75.9259C72.6773 78.9203 74.3923 81.9148 76.1163 84.9365C76.2212 85.1652 76.397 85.354 76.6177 85.475C76.8384 85.5959 77.0921 85.6426 77.3413 85.608C79.0745 85.5082 80.8167 85.5263 82.559 85.5263Z" fill="#0F4A86"/>
<path d="M16.1092 70.2091C15.3651 71.2073 14.6392 72.1963 13.9042 73.1673C12.8607 74.5375 11.8171 74.6917 10.4288 73.6573C7.34359 71.3767 4.26747 69.087 1.20042 66.7882C-0.224219 65.7265 -0.360331 64.683 0.683193 63.3128C5.42593 56.9246 10.1838 50.5395 14.9568 44.1573C16.0185 42.7327 17.071 42.5784 18.5048 43.6401C21.5597 45.9026 24.6086 48.1772 27.6515 50.4638C29.0761 51.5346 29.2394 52.5781 28.1959 54.0118C27.4972 54.9737 26.7803 55.9174 26.0181 56.9428C26.3448 57.1968 26.617 57.4146 26.9255 57.6142L63.2946 84.7822C63.5033 84.9364 63.712 85.0816 63.9116 85.2449C64.1569 85.4065 64.3651 85.6182 64.5226 85.8661C64.6801 86.1139 64.7833 86.3924 64.8253 86.6831C64.8673 86.9737 64.8472 87.27 64.7664 87.5523C64.6855 87.8347 64.5457 88.0967 64.3563 88.321C61.9788 91.5696 59.5591 94.8 57.097 98.0122C56.1896 99.2191 55.0644 99.2644 53.7214 98.2663L31.9889 82.0599L16.8714 70.7445L16.1092 70.2091ZM53.3131 82.4955C52.2242 83.3484 51.2895 83.4755 50.5001 82.931C49.7106 82.3866 49.4293 81.5064 49.883 79.9366L48.3858 78.8204C47.1699 79.6643 46.3169 79.7914 45.5184 79.2016C44.4477 78.4212 44.4839 77.3867 44.9377 76.2616L44.1482 75.6445C43.8941 75.4539 43.631 75.2816 43.386 75.1182C42.2426 75.953 41.4169 76.071 40.6093 75.5447C39.8017 75.0184 39.5204 74.1564 39.9378 72.5139L38.4315 71.3978C37.2882 72.3052 36.5078 72.4051 35.6548 71.8425C35.2732 71.6488 34.9751 71.3227 34.8165 70.9252C34.6578 70.5278 34.6494 70.0861 34.7928 69.6828C35.1195 68.8662 34.7293 68.5849 34.203 68.24L33.4408 67.7228C32.2883 68.6302 31.508 68.6937 30.655 68.1311C29.802 67.5686 29.6478 66.8789 29.9018 65.5722C29.9125 65.443 29.8954 65.3129 29.8516 65.1908C29.8078 65.0687 29.7383 64.9574 29.6478 64.8645C29.2768 64.538 28.8859 64.2349 28.4772 63.9571C28.1398 64.3639 27.6634 64.6309 27.1403 64.7063C26.6172 64.7818 26.0847 64.6603 25.6461 64.3654C24.7387 63.8028 24.6207 62.9317 25.0563 61.3891L23.5137 60.282C21.844 62.5143 20.2379 64.683 18.5864 66.8971L20.2107 68.0858C21.3268 67.2419 22.207 67.1239 23.0146 67.6684C23.8222 68.2128 24.0853 69.1021 23.6316 70.6628L25.1833 71.7789C26.2722 70.9169 26.9981 70.7899 27.9055 71.3071C28.2972 71.5157 28.6028 71.8556 28.7688 72.2671C28.9347 72.6787 28.9504 73.1355 28.813 73.5575C28.5407 74.2653 28.813 74.5556 29.312 74.8641C29.6024 75.0547 29.8837 75.2634 30.2194 75.4721C30.5392 75.0759 30.9943 74.8122 31.497 74.7318C31.9996 74.6513 32.5143 74.7599 32.9417 75.0365C34.085 75.7897 34.0669 76.8514 33.5678 77.9947L34.3845 78.6117L35.1376 79.1471C36.3354 78.2851 37.1702 78.1853 38.005 78.7751C38.8398 79.3649 39.0032 80.2451 38.5495 81.697C38.7854 81.8784 39.0213 82.0871 39.2754 82.2777L40.1012 82.8675C41.2717 81.9601 42.0702 81.8784 42.9051 82.4592C43.2771 82.6711 43.5622 83.0078 43.71 83.4096C43.8578 83.8115 43.8587 84.2526 43.7126 84.6551C43.6468 84.7714 43.6075 84.9008 43.5975 85.034C43.5874 85.1673 43.6069 85.3011 43.6546 85.4259C43.7023 85.5507 43.777 85.6635 43.8733 85.7561C43.9696 85.8488 44.0851 85.919 44.2117 85.9618C44.5112 86.1433 44.7834 86.361 45.1191 86.5698C45.4459 86.1834 45.9009 85.9276 46.4008 85.8493C46.9007 85.771 47.4121 85.8753 47.8414 86.1433C48.9756 86.8873 48.9484 87.9581 48.4493 89.1196L50.0101 90.2629C51.1716 89.4372 52.0699 89.3555 52.8412 89.8727C53.912 90.6531 53.912 91.6875 53.3947 92.8218L55.0281 94.0015L59.9372 87.3955L58.3038 86.1977C57.9796 86.6052 57.5137 86.8754 56.999 86.9545C56.4843 87.0335 55.9587 86.9156 55.5271 86.6242C54.402 85.871 54.4201 84.8094 54.9283 83.657L53.3131 82.4955ZM12.3616 54.4928C12.9877 54.9737 13.5503 55.4002 14.0494 55.8085C14.4672 56.1497 14.7346 56.6411 14.794 57.1773C14.8534 57.7135 14.7 58.2516 14.367 58.6759C14.0415 59.0837 13.5717 59.3506 13.0548 59.4216C12.5379 59.4925 12.0136 59.362 11.5903 59.057C11.0277 58.6941 10.4923 58.2767 9.87527 57.832L4.9571 64.438L11.5721 69.3562C15.7009 63.8119 19.7388 58.3493 23.8948 52.805L17.2798 47.8686L12.3616 54.4928Z" fill="#0F4A86"/>
<path d="M37.0796 40.0922C34.8201 40.0922 32.5425 40.0922 30.3103 40.0922C29.8228 40.138 29.3329 40.0361 28.9041 39.7999C28.4752 39.5636 28.1274 39.2038 27.9057 38.7673C25.6371 34.8352 23.3504 30.9031 21.0456 26.971C20.7798 26.5668 20.6382 26.0936 20.6382 25.6099C20.6382 25.1261 20.7798 24.6529 21.0456 24.2487C23.3444 20.3408 25.6311 16.4087 27.9057 12.4524C28.1175 12.035 28.4469 11.6888 28.8533 11.4566C29.2597 11.2244 29.7252 11.1163 30.1923 11.1457C34.802 11.1457 39.4086 11.1457 44.0122 11.1457C44.4638 11.1185 44.9136 11.2233 45.3068 11.4472C45.6999 11.6712 46.0194 12.0047 46.2263 12.407C48.5372 16.3936 50.8571 20.3711 53.1861 24.3395C53.4348 24.7182 53.5673 25.1614 53.5673 25.6144C53.5673 26.0674 53.4348 26.5106 53.1861 26.8893C50.8511 30.8638 48.5311 34.8382 46.2263 38.8127C46.0262 39.2003 45.7187 39.522 45.3405 39.7392C44.9623 39.9565 44.5295 40.0601 44.0939 40.0377C41.78 40.074 39.4298 40.0922 37.0796 40.0922ZM37.0796 35.9907C38.8944 35.9907 40.6276 35.9907 42.397 35.9907C42.6318 36.0143 42.8681 35.963 43.0719 35.844C43.2757 35.725 43.4365 35.5444 43.5313 35.3282C45.2735 32.2884 47.0702 29.2667 48.8033 26.2541C48.8838 26.0807 48.9254 25.8918 48.9254 25.7006C48.9254 25.5094 48.8838 25.3205 48.8033 25.1471C47.0551 22.0679 45.2705 19.01 43.4496 15.9732C43.3305 15.8039 43.1765 15.6622 42.9981 15.5573C42.8197 15.4525 42.621 15.3869 42.4152 15.3652C38.8763 15.3652 35.3283 15.3652 31.7894 15.3652C31.5706 15.3905 31.3597 15.4618 31.1705 15.5744C30.9812 15.687 30.818 15.8383 30.6914 16.0185C28.8766 19.0221 27.1162 22.0619 25.383 25.0926C25.3026 25.2661 25.261 25.455 25.261 25.6462C25.261 25.8373 25.3026 26.0262 25.383 26.1997C27.1374 29.2728 28.922 32.3308 30.7368 35.3736C30.8568 35.5411 31.0111 35.6812 31.1895 35.7845C31.3679 35.8877 31.5662 35.9518 31.7712 35.9725C33.577 36.0179 35.3555 35.9907 37.125 35.9907H37.0796Z" fill="#0F4A86"/>
<path d="M90.7803 75.0912C90.773 76.7223 90.2818 78.3146 89.3689 79.6662C88.4559 81.0179 87.1623 82.0682 85.6519 82.6841C84.1415 83.2999 82.4824 83.4536 80.8846 83.1257C79.2868 82.7977 77.8222 82.0029 76.6765 80.842C75.5308 79.681 74.7555 78.2061 74.4488 76.6041C74.142 75.0021 74.3177 73.345 74.9535 71.843C75.5893 70.3409 76.6566 69.0613 78.0203 68.1663C79.3839 67.2714 80.9825 66.8013 82.6136 66.8156C84.7895 66.8443 86.8665 67.7288 88.395 69.2777C89.9235 70.8265 90.7805 72.9151 90.7803 75.0912ZM82.5319 79.1746C83.3423 79.1746 84.1346 78.9345 84.8087 78.4846C85.4828 78.0347 86.0085 77.3952 86.3194 76.6468C86.6304 75.8984 86.7127 75.0747 86.5559 74.2796C86.3991 73.4844 86.0102 72.7536 85.4384 72.1793C84.8667 71.605 84.1375 71.2129 83.3431 71.0526C82.5487 70.8923 81.7246 70.9709 80.9749 71.2786C80.2251 71.5862 79.5833 72.1091 79.1304 72.7812C78.6776 73.4533 78.434 74.2445 78.4304 75.0549C78.4292 75.5947 78.5343 76.1295 78.7398 76.6287C78.9453 77.1278 79.2471 77.5817 79.6279 77.9642C80.0088 78.3468 80.4613 78.6505 80.9595 78.8582C81.4578 79.0659 81.9921 79.1734 82.5319 79.1746Z" fill="#0F4A86"/>
<path d="M37.0341 33.7677C35.4071 33.7425 33.8239 33.2362 32.4843 32.3125C31.1447 31.3888 30.1086 30.0891 29.5066 28.5773C28.9047 27.0655 28.7638 25.4094 29.1019 23.8177C29.4399 22.226 30.2417 20.77 31.4061 19.6334C32.5705 18.4967 34.0454 17.7303 35.6448 17.4308C37.2443 17.1313 38.8965 17.3121 40.3933 17.9504C41.8901 18.5886 43.1644 19.6558 44.0555 21.0174C44.9466 22.3789 45.4145 23.9738 45.4004 25.601C45.3693 27.7919 44.4715 29.8813 42.9036 31.4118C41.3356 32.9424 39.2251 33.7895 37.0341 33.7677ZM37.1248 29.6299C37.936 29.6352 38.7305 29.3999 39.408 28.9537C40.0854 28.5075 40.6154 27.8705 40.9308 27.1231C41.2461 26.3757 41.3328 25.5516 41.1799 24.755C41.0269 23.9583 40.6411 23.225 40.0713 22.6476C39.5015 22.0702 38.7733 21.6747 37.9788 21.5112C37.1843 21.3476 36.3591 21.4234 35.6076 21.7288C34.8561 22.0342 34.2121 22.5557 33.7569 23.2271C33.3018 23.8986 33.0559 24.69 33.0505 25.5011C33.0433 26.0407 33.1434 26.5764 33.3449 27.077C33.5464 27.5776 33.8454 28.0332 34.2244 28.4173C34.6035 28.8015 35.0551 29.1065 35.553 29.3146C36.0509 29.5227 36.5852 29.6299 37.1248 29.6299Z" fill="#0F4A86"/>
</svg>
